<?xml version="1.0" encoding="utf-8"?>
<!-- Generator: Adobe Illustrator 23.0.3, SVG Export Plug-In . SVG Version: 6.00 Build 0)  -->
<svg version="1.1" id="Layer_1" xmlns="http://www.w3.org/2000/svg" xmlns:xlink="http://www.w3.org/1999/xlink" x="0px" y="0px"
	 viewBox="0 0 2000 2469.5" style="enable-background:new 0 0 2000 2469.5;" xml:space="preserve">
<path d="M2000,809.2c0,18.6,0,37.3,0,55.9c-1,2.8-1.5,5.7-1.5,8.7c0,3-0.1,6-0.2,9c-0.3,6.7-0.3,13.3-0.9,19.9
	c-0.7,7.9-2,15.8-3,23.8c-2.9,23.8-7.5,47.3-12.9,70.6c-15.1,64.4-37.2,126.3-66,185.8c-12.3,25.5-25.9,50.3-41.5,74
	c-7.7,11.7-15.8,23-25.3,33.4c-0.9,1-1.6,2.1-2.5,3.3c0.1,2,0.1,3.9,0.3,5.9c0.7,6.3,1.5,12.6,2.1,18.8c2.3,21.2,2.8,42.5,2.2,63.8
	c-0.5,18.6-1.8,37.2-4.5,55.7c-0.8,5.6-1.6,11.2-2.4,16.8c-1.8,11.8-3.5,23.7-5.5,35.5c-6,35.5-14.6,70.4-25.5,104.6
	c-5,15.8-10.7,31.5-16,47.3c-10,29.6-18.6,59.7-26.1,90.1c-0.4,1.6-0.7,3.3-0.8,4.9c-0.1,0.9,0.2,2.1,0.7,2.8c1.5,2.2,3.3,4.2,5,6.3
	c8.6,10.6,16.4,21.8,23.3,33.6c16,27.3,26.4,56.6,30.6,88c2.9,21.6,2.4,43.1-1,64.7c-3.7,23.6-10.8,45.9-21.3,67.2
	c-11.3,22.8-25.7,43.5-42.7,62.5c-32.9,36.6-71.6,65.5-115.4,87.7c-1.2,0.6-2.5,0.9-3.8,1.4c-1.7-1.3-3.3-2.5-4.8-3.7
	c-11.1-9.1-22.7-17.4-34.9-24.9c-38.7-23.9-80.1-40.3-125.6-45.7c-14.9-1.8-29.9-1.6-44.7,1.2c-5,0.9-8.3,3.3-10.7,7.9
	c-13.6,25.8-21.1,53.1-19.7,82.5c0.7,16.3,1.6,32.6,2.5,48.9c0.7,11.4,0.3,22.6-1.9,33.8c-0.4,2-0.3,3.9,0.2,5.9
	c2,7.4,4,14.8,5.8,22.2c4.5,18.9,6.3,38,5,57.5c-0.5,7.4-2.1,14.5-4.3,21.5c-0.9,3-2.8,5.2-5.5,6.9c-4.2,2.7-8.8,4.8-13.5,6.4
	c-5.3,1.8-10.8,3.3-16.2,4.8c-3.5,1-6.9,2.1-10.2,4c-16.1,9.4-33.2,15.1-52,15.7c-2,0.1-3.9,0.5-5.8,1.4c-2.4,1.2-4.8,2.3-7.2,3.4
	c-12.2,5.3-24.8,9.6-38.1,11.5c-5.6,0.8-11.2,1.4-16.9,2.2c-16.4,10.8-26.3,14.5-45.9,17.9c-6.6,1.1-13.2,1.6-19.9,1.7
	c-2.7,0-5.2,0.6-7.6,2.1c-1.4,0.9-2.8,1.7-4.3,2.5c-20.9,11.1-43.1,17.3-66.9,17.3c-4,0-8-0.1-12-0.2c-2.4-0.1-4.5,0.4-6.7,1.4
	c-7.6,3.4-15.5,6-23.7,7.7c-5.9,1.2-11.8,2.3-17.6,3.4c-1.3,0.2-2.6,0.6-3.5,1.7c-10,0-20,0-30,0c-4-2.1-8-2.3-12,0c-10,0-20,0-30,0
	c-0.9-0.5-1.7-1.2-2.6-1.4c-3.6-0.8-7.2-1.6-10.8-2.1c-10.9-1.6-21.5-4.7-31.5-9.1c-2.5-1.1-5-1.6-7.7-1.5c-2.7,0.1-5.3,0.1-8,0.2
	c-11.4,0.3-22.6-1-33.7-3.5c-13.7-3.2-26.7-8.1-38.9-15.1c-3.5-2-7-3.5-11.2-3.3c-7,0.2-13.9-0.8-20.8-2c-14.6-2.6-28.4-7-40.5-15.9
	c-2.3-1.7-4.7-2.2-7.4-2.3c-7.4-0.2-14.5-1.7-21.7-3.3c-11.7-2.7-23-6.8-33.8-12c-3-1.5-6.1-2.4-9.5-2.4c-3,0-6-0.2-9-0.7
	c-13.9-2.3-27.1-6.7-39.4-13.8c-4.4-2.6-8.9-4.4-13.8-5.5c-6.5-1.5-12.8-3.5-18.9-6.2c-3.6-1.6-7.1-3.7-10.5-5.7
	c-1.8-1-2.9-2.7-3.6-4.7c-2-6-3.6-12.1-4.3-18.4c-1.7-15-1-29.9,1.4-44.8c1.9-11.9,4.5-23.5,7.9-35c1.3-4.3,1.7-8.4,0.8-12.7
	c-2-10.2-2-20.5-1.5-30.9c0.7-15.3,1.4-30.6,2.4-45.9c0.9-13.7-0.1-27.3-2.9-40.7c-3.5-16.4-9.4-31.9-17.6-46.5
	c-1.8-3.2-4.3-5.1-7.7-5.7c-5.6-1-11.2-2-16.8-2.4c-14.3-1-28.6-0.1-42.8,2.4c-20,3.5-39.5,9-58.5,16.6
	c-32.4,12.9-62.2,30.3-89.2,52.4c-1.8,1.4-3.2,3.5-5.9,3.4c-0.3-0.1-0.7-0.1-0.9-0.3c-2.7-1.4-5.3-2.7-8-4.1
	c-36.6-19-69.4-43.4-98.4-72.7c-18.1-18.3-33.8-38.5-46.6-60.9c-24.5-43.3-34.9-89.6-29.9-139.2c2.4-23,8.3-45.1,17.3-66.4
	c9.5-22.2,22-42.5,37.2-61.3c1.7-2.1,3.4-4.1,5-6.2c0.5-0.7,0.7-1.9,0.7-2.8c-0.1-1.3-0.4-2.6-0.8-3.9c-8.9-36.9-19.8-73.2-32.5-109
	c-9.1-25.7-17.1-51.8-23.6-78.3c-5.3-21.7-10-43.5-13.3-65.5c-1.8-11.8-3.6-23.7-5.3-35.5c-0.9-6.6-1.5-13.2-2.5-19.8
	c-1.8-12.9-2.1-25.9-2.8-38.8c-1.3-23,0.1-45.9,2.3-68.8c0.7-7.3,1.5-14.5,2.2-21.5c-0.8-1.1-1.4-2-2.1-2.7
	c-8.1-8.4-15.2-17.7-21.8-27.3c-8.4-12-16.1-24.5-23.4-37.2c-35.9-63.1-62.7-130-82.1-199.9c-8.3-29.9-14.7-60.1-19.4-90.7
	c-1.8-11.8-3.2-23.8-4.5-35.7c-1.4-12.2-2.3-24.5-2.6-36.9c0-1.7-0.1-3.3-0.4-5c-0.4-2.7-1.1-5.2-3.1-7.2c0-10.7,0-21.3,0-32
	c2-2.8,3.1-5.8,3.3-9.3c0.1-3,0.4-6,0.5-9c0.6-19.3,2.5-38.5,4.8-57.7c2.3-19.5,5.4-38.9,9.3-58.1c5.6-27.4,12.7-54.4,22.2-80.7
	c9.7-27,21.6-53,37.1-77.2c3.1-4.8,5.3-9.9,7.1-15.3c12.2-37.4,27.3-73.6,45.6-108.4c13.8-26.2,29.3-51.5,47.3-75.1
	c8.3-10.9,17.1-21.3,26.8-30.9c8.5-8.4,17.8-16.1,27.7-22.8c7.2-4.8,14.7-9.1,22.9-12c11.5-4.1,23.1-5.9,35.3-3.8
	c6.6,1.1,13.1,2.5,19.5,3.9c10.3,2.3,20.5,2.3,30.5-1.2c5-1.8,10.1-3.4,15-5.3c17.4-6.6,34.2-14.6,50.9-22.9
	c11.1-5.5,8.4-3,13.7-13.3c15-29,32.6-56.4,53.2-81.9c17-21,35.6-40.4,56.6-57.5c8.8-7.2,17.8-14,27.8-19.4
	c13.2-7,26.6-13.6,40.4-19.5c5.2-2.2,10.6-3.8,16.2-5c7.5-1.6,14.5-0.5,21.5,2.3c3.7,1.5,7.2,3.5,10.3,6c3.4,2.7,6.8,5.4,9.8,8.5
	c6.2,6.2,13.3,11,21.1,15c11,5.6,22.6,9.6,34.4,13.1c0.6,0.2,1.3,0.2,2,0.3c1.2,0.2,2.9-0.6,3.3-1.7c0.5-1.2,0.9-2.5,1.3-3.8
	c4.2-13,11.5-23.9,21.3-33.3c7.3-6.9,15.4-12.6,24.2-17.5c10.5-5.8,21.5-10.4,33-14c20.4-6.4,41.2-10.7,62.5-12.2
	c2.3-0.2,4.7-0.2,6.6-1.7c5.3,0,10.7,0,16,0c0.8,0.5,1.6,1.3,2.5,1.5c7.4,1.6,13.5,5.6,18.9,10.6c3.2,2.9,6.2,6,9.1,9.2
	c3.1,3.4,6,7.1,9.1,10.6c3.3,3.7,6.7,7.4,10.3,10.9c4.9,4.7,10.7,7.8,17.4,9.3c9.1,2.1,18.4,3.4,27.6,3.6c17.3,0.3,34.6,0.3,51.9,0
	c9.3-0.2,18.5-1.5,27.6-3.7c5.9-1.4,11.3-3.9,15.8-8.1c3.4-3.2,6.6-6.5,9.8-10c3.8-4.2,7.3-8.7,11.1-12.8c3.6-3.9,7.4-7.6,11.4-11.1
	c4.5-4,9.7-6.9,15.7-8.3c1.3-0.3,2.4-1.1,3.6-1.7c5.3,0,10.7,0,16,0c1.3,1.3,2.9,1.5,4.6,1.6c3.6,0.3,7.3,0.3,10.9,0.8
	c15.8,2.2,31.5,5.1,46.9,9.6c14.7,4.4,28.9,9.9,42.2,17.7c8.4,4.9,16.1,10.6,22.9,17.5c8.5,8.6,15.1,18.5,19,30.1
	c0.6,1.9,1.2,3.8,2.1,5.6c0.4,0.7,1.6,1.2,2.5,1.2c1.3,0.1,2.7-0.2,3.9-0.7c7.5-2.6,15.2-5,22.6-7.9c12.4-5,23.9-11.5,33.3-21.5
	c4.1-4.4,9-7.9,14.3-10.8c8.5-4.6,17.4-6.3,27-4c5.9,1.4,11.6,3.2,17,5.7c10,4.6,19.8,9.5,29.7,14.2c8.2,3.8,15.8,8.5,23.1,13.8
	c13.3,9.5,25.6,20.2,37.2,31.6c24.8,24.4,46.1,51.6,64.6,80.9c8.2,13,15.8,26.2,22.6,40c1.9,3.8,4.3,6.4,8.1,8.3
	c16.5,7.9,32.9,16,49.9,22.7c6.8,2.7,13.7,5,20.6,7.5c9.4,3.3,18.9,3.3,28.5,1.5c1.3-0.3,2.6-0.7,3.9-1c6.5-1.2,13.1-2.5,19.6-3.6
	c5.6-1,11.2-0.7,16.9,0.1c9,1.3,17.4,4.1,25.5,8.2c8.1,4,15.5,9.1,22.6,14.5c12.8,9.7,24,21.1,34.3,33.3
	c18.5,22,34.2,45.8,48.4,70.8c23.1,40.6,41.4,83.3,55.9,127.7c1.5,4.5,3.3,8.6,5.9,12.6c9.4,14.6,17.5,29.8,24.6,45.6
	c16.6,36.9,27.9,75.4,35.8,115c3.6,17.9,6.4,36,8.6,54.2c1.9,15.9,3.6,31.7,3.7,47.7c0,3,0.2,6,0.2,9
	C1998.4,802.9,1998.9,806.1,2000,809.2z M1278.4,1851.8c1.2,0.9,2,2,1.9,3.5c1.7-0.1,3.3-0.2,5-0.2c0.1,1.5,0.3,2.9,0.4,4.4
	c0.8,0,1.7,0,2.5,0.1c1.2,0.2,2.3,0.3,3.4-0.2c0,0.6-0.2,1.6,0.1,1.8c2.3,1.8,4.7,3.7,7.2,5.2c21.9,13,45.5,21.9,70.2,27.8
	c16.5,3.9,33.3,6.4,50.2,8.1c0.9,0.1,2.3-0.4,2.7,1.4c-19.4,1.3-38.6,0.5-57.8-2.2c-10.8-1.5-21.6-3.8-32.2-6.8
	c-17.1-4.7-33.4-11-49.1-19.3c-33.8-17.9-61.6-42.7-84.4-73.3c-20-26.9-34.8-56.5-45.7-88.2c-1.1-3.1-2.1-6.3-3.2-9.4
	c-0.6-1.7-2.1-2.5-4-2.2c-7.8,1.5-7.8,2.2-6.9,9c0.2,1.6,0.4,3.3,0.8,4.9c2.4,10.7,4.5,21.5,7.4,32c13.1,47.2,35.2,89.6,68.3,125.9
	c1.6,1.7,3.1,3.5,4.5,5.3c1,1.3,0.3,2.5-0.3,3.7l0.1,0.1c-0.9-2.8-3.6-3.8-5.6-5.4c-23.3-18.1-43.2-39.4-59.5-64
	c-17.6-26.5-30.6-55.2-39.6-85.7c-1.7-5.7-3-11.6-4.6-17.4c-0.8-2.9-2-4.1-4.7-4.2c-9.7-0.4-19.1-2.5-28.2-5.8
	c-0.9-0.3-2-0.5-2.9-0.4c-0.5,0-1.2,0.9-1.2,1.3c0.1,1.3,0.4,2.6,0.8,3.9c7.7,25.6,18,50,32.3,72.7c6.2,9.8,12.9,19.4,19.6,28.9
	c7.2,10.4,14.7,20.6,21.9,30.9c8,11.4,15.7,23.1,22.7,35.2c10.1,17.6,18.8,35.9,24.5,55.5c5.2,17.7,7.6,35.7,6.9,54.2
	c-0.2,4.6-0.8,9.3-1.2,13.9c-1.4,13.3-4.7,26.2-10.4,38.3c-10.9,23.1-28.1,39.2-52.7,47c-2.5,0.8-4.9,1.8-7.4,2.7c0,0,0.1,0,0.1,0
	c0.3-0.9,0.4-2.2,1-2.6c1.7-1,3.6-1.6,5.5-2.3c23.3-9.3,38.8-26.2,47.6-49.5c3.7-9.7,5.7-19.8,6.9-30.1c2.3-19.7,0.8-39.2-3.9-58.4
	c-4.4-18.2-11.6-35.4-20.3-51.9c-8.9-16.8-19.1-32.8-29.8-48.4c-10-14.5-20.1-29-29.9-43.6c-19.8-29.3-33.2-61.3-40.8-95.8
	c-0.6-2.6-1.5-5.1-2.1-7.3c-5-3.5-9.7-6.7-14.5-10.1c-2.1,0.9-4.3,1.7-6.3,2.6c-8.7,4.1-17.4,8.3-26.2,12.3
	c-1.5,0.7-3.1,1.2-4.7,1.7c-0.2,0.1-0.6-0.3-0.8-0.5c-0.2-0.2-0.4-0.6-0.3-0.8c0.8-1.8,1.6-3.6,2.4-5.4c2.2-4.9,4.4-9.7,6.5-14.6
	c2-4.7,2.9-9.5,2.6-14.6c-0.1-1.7-0.1-3.3-0.1-5c-0.8-25.6-1.7-51.2-2.4-76.8c-0.2-8.2-2.4-15.7-6.5-22.7c-1.5-2.6-3-5.1-4.7-8
	c1.2-0.3,2.2-0.8,2.9-0.6c4.4,1.5,8.7,3.2,13.1,4.8c0.5,0.2,1.2-0.1,1.9-0.1c-0.3-1.8-1.8-2.4-3-3.3c-7-5.1-13.5-10.8-18.9-17.7
	c-0.4-0.5-0.9-1-1.4-1.4c-0.6-0.6-2.2-0.7-2.7-0.1c-6.5,8-14.2,14.9-22.5,21c-0.4,0.3-0.4,0.9-0.6,1.4c4.2,0.1,7.5-2.4,11.3-3.4
	c1.6-0.4,3.2-0.9,4.7-1.3c0.2-0.1,0.6,0.2,0.8,0.4c0.2,0.2,0.4,0.6,0.3,0.7c-1.3,2.3-2.6,4.6-3.9,6.9c-4.2,7.3-6.8,15-6.7,23.7
	c0.1,8.6-0.5,17.3-0.8,25.9c-0.6,18.6-1.2,37.3-1.8,55.9c-0.1,4.4,0.4,8.6,2.1,12.7c1.5,3.7,3,7.4,4.6,11.1
	c1.6,3.6,3.4,7.2,5.2,10.8c-0.6,0.4-1.2,1.1-1.6,1c-1.9-0.6-3.7-1.3-5.5-2.1c-8.7-4.1-17.4-8.3-26.1-12.4c-1.8-0.8-3.5-1.9-6-1.6
	c-3.8,2.6-7.9,5.5-12,8.3c-1.5,1-2.4,2.3-2.8,4c-0.4,1.6-0.7,3.2-1.1,4.9c-3.4,14.6-7.7,28.9-13.1,42.9
	c-7.2,18.4-16.2,35.7-27.3,52.1c-9.9,14.6-19.9,29.1-29.9,43.6c-8.5,12.3-16.6,24.9-24.1,37.9c-9,15.6-16.7,31.8-22.5,48.9
	c-7.4,22.1-10.2,44.7-8.5,67.9c0.9,12.3,3.3,24.4,7.9,35.9c8.8,22.5,24,38.8,46.5,48.1c2.1,0.9,4.4,1.5,6.5,2.6
	c0.7,0.3,0.9,1.6,1.4,2.4l0.2-0.1c-0.9-0.3-1.9-0.7-2.8-0.9c-18-4.6-33-13.8-45-27.9c-6.1-7.2-10.8-15.2-14.4-23.8
	c-6.6-15.5-9.4-31.9-10.2-48.6c-1.1-25,3.7-49,12.9-72.1c6.9-17.4,15.5-33.9,25.6-49.6c7.7-12,15.9-23.8,24-35.6
	c7.8-11.2,15.8-22.2,23.7-33.4c17.9-25.5,31.1-53.4,40.5-83.1c0.8-2.5,1.4-5.1,2-7.7c0.2-0.8-1-1.9-1.9-1.7
	c-1.6,0.4-3.2,0.9-4.7,1.4c-7.3,2.2-14.7,4.3-22.4,4.6c-6.1,0.3-7.1,0.6-8.6,7.1c-5,21.1-12.2,41.4-21.4,61.1
	c-15.7,33.5-36.6,63.3-63.9,88.4c-7.6,7-15.4,13.7-24.1,19.3c-0.7,0.5-1.1,0.3-1.3-1.1c2-2.2,4.2-4.6,6.5-7.1
	c11-12.1,20.9-25,29.7-38.8c24.4-38.1,39.2-79.8,46.8-124.2c0.3-1.6,0.4-3.3,0.3-5c0-0.9-0.5-1.9-1.6-2.3c-1.9-0.6-3.8-1.2-5.7-1.7
	c-1.7-0.4-3.4,0.5-4,2.1c-2.9,8.1-5.5,16.4-8.7,24.4c-14.2,36.3-33.8,69.3-60.7,97.7c-15.6,16.5-33.1,30.8-52.6,42.5
	c-23.9,14.3-49.6,23.9-76.9,29.6c-12.1,2.5-24.3,4-36.5,5c-11.9,0.9-23.9,0.9-35.9,0c-0.3,0-0.6-0.2-0.9-0.3c0.9-1.3,2.2-1,3.5-1.1
	c13.2-1.6,26.4-3.3,39.4-5.9c21.6-4.3,42.5-11,62.4-20.4c7.5-3.5,14.9-7.2,21.8-12.2c-0.2-1.1-0.4-2-0.5-2.9
	c1.9,1.9,3.9,0.9,5.9,0.1c0.8-1.3,0.8-2.6,0.3-4c0.6-0.2,1.4-0.7,1.6-0.5c1.3,1,2.3,1,3.4-0.2l0.3-0.4l-0.3,0.5
	c-1.6,0.2-3.2,0.4-4.8,0.6c-0.4,1.4-1,2.7-0.2,4.1c-2-1.3-4.1-0.5-6.2-0.4c-0.8,1.6-2.4,2.3-3.8,3c-15.8,7.9-32.1,14.2-49.4,17.8
	c-0.4,0.1-0.9-0.4-1.4-0.6c1.8-1.7,4-2.3,6.1-3.2c25.6-10.9,48.4-26.2,68.8-45c3.7-3.4,6.9-7.1,10.3-10.8c1.1-1.2,2.2-2.5,1.8-4.3
	c-0.2-1-2.2-0.8-4.5,0.4c-1.5,0.8-2.9,1.5-4.3,2.4c-11.9,7.5-24.9,12.4-38.4,16c-13.8,3.7-27.9,5.7-42.1,7.3
	c-2.6,0.3-5.3,0.7-10-1.1c5.9-0.1,9.5-1.6,13.4-2.5c13.3-3,26.3-6.8,39-11.9c1.8-0.7,3.7-1.5,5.4-2.5c0.6-0.4,0.7-1.7,1-2.6
	c0.6,0.1,1.2,0.2,1.8,0.4c1,0.4,1.3,0.2,0.9-0.6c0,0-0.6,0.2-0.9,0.2c-0.6,0-1.2,0-1.8-0.1c-2.1,1.7-4.6,2.5-7.1,3.3
	c-16.5,5.2-33.4,8.6-50.6,10.5c-18.7,2-37.2,1.3-55.7-1.3c-21.1-3-41.5-9-61.1-17.4c-20.2-8.7-39.4-19.3-56.8-32.8
	c-26.9-20.9-45-47.6-53.4-80.7c-3-12-4.9-24.1-6.1-36.3c-1.9-19.6-1.6-39.2-0.5-58.8c0-0.6,0.1-1.2,0.1-1.8c0-0.3,0.1-0.6,0.1-0.9
	c0-0.2-0.3-0.3-0.5-0.4c-0.1,0.6-0.3,1.1-0.2,1.7c0.1,0.6,0.4,1.1,0.7,1.7c-1.4,0.1-2.5,0.7-2.8,2.3c-1.1,6.5-2,13.1-2.8,19.7
	c-2.6,22.5-2,45,1.1,67.5c3.9,29.1,12.3,57,23.7,83.9c0.6,1.5,1.3,3.1,2.8,4l-0.2-0.1c-0.6,0-1.5,0.3-1.8,0c-1-0.8-2-1.8-2.6-2.9
	c-3.2-5.8-6.4-11.7-9.3-17.6c-12.9-26.4-22.5-53.9-27.6-82.9c-0.5-2.6-1-5.2-1.6-7.8c-0.6-2.6-1.7-5-3.4-7.1
	c-1.4-1.7-3.9-1.4-4.9,0.6c-0.6,1.2-1.3,2.4-1.5,3.6c-0.8,4.2-1.7,8.5-1.9,12.8c-0.4,7-0.5,13.9-0.4,20.9c0,6,0.7,11.9,1.8,17.8
	c1.7,9.2,4.3,18.1,7.4,26.8c4.6,12.8,10.4,25.2,16.9,37.1c1.3,2.3,2.5,4.7,3.7,7c0.6,1.3,0.4,2.6-0.3,3.7l0.2-0.3
	c-9.8-13.5-17.8-28.1-24.3-43.5c-10.4-24.4-16.8-49.8-17.7-76.4c-0.2-6,0-12,0-18c-0.4,0.1-0.8,0.1-0.9,0.2c-1.4,2.3-2,4.8-2.3,7.5
	c-0.7,6.3-1.5,12.5-2.3,18.8c-0.1,0.5-0.7,1.2-1.1,1.3c-0.5,0.1-1.5-0.1-1.7-0.5c-1.7-2.9-3.4-5.7-4.8-8.7
	c-5.2-11.4-7.3-23.4-7.6-35.9c-0.1-3.7-0.1-7.3-0.5-10.9c-0.4-3.4-2.2-6.3-5.1-8.2c-2.2-1.5-4.5-2.8-6.9-4.1
	c-11.2-6-23.1-10.2-35.2-13.8c-1.3-0.4-2.6-0.4-3.9-0.6c-1.5-0.2-3.3,1.8-2.9,3.2c0.4,1.6,0.8,3.2,1.6,4.7c4.4,9,8.7,18,13.2,26.8
	c4,7.7,8.3,15.2,12.4,22.8c2.8,5.3,5.4,10.7,8.1,16c0.8,1.5,1.2,3.1,0.7,4.8c0,0,0.2-0.2,0.2-0.2c-0.6-0.2-1.4-0.3-1.7-0.7
	c-10.8-17.2-21.7-34.3-32.4-51.6c-5.3-8.5-9.6-17.5-13.7-26.6c-0.8-1.8-1.5-3.7-2.5-5.4c-1.3-2.4-3.1-4.3-5.6-5.5
	c-4.5-2.2-9.2-3.9-14.3-4c-0.7,0-1.3,0-2,0c-1.6,0-3.3,1.9-3.1,3.3c0.2,1,0.3,2,0.6,2.9c2.2,9.1,5.6,17.8,9.7,26.2
	c5.6,11.4,12.5,22,20.6,31.7c10,12.1,18.1,25.5,24.9,39.7c15.4,32,26.1,65.4,32.8,100.3c0.1,0.5-0.4,1-0.6,1.5
	c-1.7-0.8-2.3-2.3-3.1-3.8c-4-7.7-8-15.3-11.9-23c-3.2-6.3-7-12.1-11.3-17.6c-10.6-13.5-23.1-24.8-37.1-34.6
	c-0.8-0.6-1.8-0.9-2.7-1.1c-0.5-0.1-1.4,0.5-1.5,0.9c-0.3,2-0.5,4-0.5,5.9c0,17.3-1.3,34.6-3.1,51.8c-1.7,16.2-3.8,32.4-5.7,48.6
	c-0.5,4.3-1.5,8.5-2.5,12.7c-2.2-0.6-2.6-2.2-2.9-3.9c-2.9-14.7-5.7-29.4-8.6-44.1c-0.6-3.3-1.6-6.4-2.5-9.6
	c-0.1-0.3-1.3-0.5-1.6-0.3c-1,0.8-2,1.8-2.7,2.8c-7,10.6-13,21.7-18.1,33.3c-8.4,19-14.1,38.8-16.3,59.5c-2,18.2-1.7,36.5,1,54.8
	c3.3,21.9,9.9,42.7,19.8,62.5c7.3,14.6,16.1,28.4,26.2,41.2c27.5,35.1,61.3,62.7,99.5,85.3c1.1,0.7,2.4,1,3.5,1.4
	c0.6-0.2,0.9-0.2,1.2-0.4c2.7-1.9,5.4-3.8,8.1-5.7c36.2-26.4,75.9-45.3,119.6-55.4c19.8-4.6,39.9-7.2,60.4-7
	c8.7,0.1,17.3,0.8,25.9,1.7c30.3,3.2,58.4,12.7,84.2,29c2.5,1.6,5,3.2,7.7,4.6c0.7,0.4,1.9-0.2,2.8-0.2c-0.6,1.4,0,2.4,1.2,3.2
	c0.8,0.9,1.6,1.7,2.3,2.6c-0.5-0.7-0.5-0.8,0.2-0.5c-0.2,0.1-0.4,0.3-0.6,0.4c-1.5,0-1.3-1.6-2.1-2.3c0.3-1.3-0.3-2.3-1-3.3
	c-8-7.4-16.5-14.2-25.4-20.5c-1.3-0.9-2.7-1.9-3.9-3c-0.7-0.7-0.4-1.8,0.1-2.7c0,0-0.1-0.2-0.1-0.2c0.5,0.4,1,0.9,1.6,1.1
	c12.7,4.6,25.4,9.2,38.1,13.8c0.9,0.3,2,0.2,2.9,0.3c0.8,1.8,2.6,1.8,4.2,2c0.4,0.4,0.8,0.7,1.3,1.1c0.1,0.1,0.4-0.2,0.6-0.3
	c-0.5-1-1.3-0.6-2.1-0.5c-0.9-2.4-0.9-2.4-4.1-2c-0.1-0.6,0-1.4-0.4-1.7c-1-0.8-2.2-1.5-3.4-2.1c-37.1-18-75.8-30.5-117.3-33.3
	c-18.8-1.2-37.2,0.3-55.6,4.1c-13.4,2.8-26.4,6.8-39.4,10.8c-21.6,6.7-43,14.2-63.5,23.6c-15.4,7.1-30.5,14.8-43.9,25.5
	c-0.7,0.6-1.8,0.8-2.8,1.2c-4.2-2.1-7.7-5.2-11.3-8.1c-22.4-18-42.7-38.2-60.6-60.6c-11.9-14.8-22.6-30.5-31.6-47.3
	c-15.1-28.2-25.1-58-26.3-90.2c-0.5-13.7,0.2-27.2,3.8-40.7c1.2,1.6,0.8,3.2,0.6,4.6c-1.5,8.6-1.3,17.3-0.8,25.9
	c0.3,4.6,0.7,9.3,1.9,13.8c6.8,27.4,20.9,50.2,43.3,67.7c11.1,8.7,23.3,15.4,36.4,20.5c22.5,8.8,45.9,13.5,70.1,13.8
	c57.3,0.7,114.5,1.3,171.8,1.9c27,0.3,53.9,1.5,80.8,3.8c14.6,1.2,29,3.5,43.2,7.5c14.4,4,29,7.6,43.8,10c8.3,1.3,16.6,1.7,24.9,0.7
	c12-1.4,20.2-7.9,24-19.6c0.6-1.9,0.8-3.9,1.2-5.8c1.4-7.9,3-15.7,5.6-23.3c1.2-3.4,2.7-6.8,4.1-10.1c0.1-0.2,0.5-0.4,0.8-0.5
	c0.8-0.3,1.3,0.1,1.3,1c0.6,10,1.1,19.9,1.8,29.9c1.1,15,3.5,29.7,7.9,44.1c5.4,17.7,13.9,33.8,25.7,48.1
	c4.9,5.9,10.4,11.2,16.6,15.8c20.3,15.3,43.5,22.7,68.6,24.2c16.1,1,31.9-0.8,47.4-5.1c4.5-1.2,9-2.5,13.5-3.6
	c3.6-0.8,7.2-1.8,10.8-2c8.6-0.4,16.4,2,23,7.8c0.2,0.2,0.4,0.6,0.6,0.8c0.6,0.7,0.3,2.1-0.7,2.4c-3.8,1.2-7.6,2.4-11.4,3.5
	c-12.2,3.5-24,7.9-35.1,14.1c-7.3,4.1-14,9-19,15.9c-0.4,0.5-0.8,1.2-1.3,1.4c-0.9,0.4-1.9,0.9-2.8,0.7c-2.6-0.6-5.1-1.5-7.6-2.4
	c-11.3-3.9-22.9-6.8-34.9-8.4c-1-0.1-2-0.4-3-0.5c-11.9-1.1-23.3-0.4-32.9,7c-2.5,0-4.5,0.2-6.4,0c-8-0.8-16-0.3-23.9,0.4
	c-6.7,0.6-13.1,2.3-19.3,4.8c-8.2,3.3-15.2,8.3-20,15.9c-0.5,0.8-1.1,1.7-1.8,2.4c-0.4,0.3-1.1,0.4-1.7,0.4c-0.1,0-0.4-0.6-0.4-0.9
	c-0.1-3.3-0.1-6.6-0.1-9.9c0-0.2-0.3-0.6-0.5-0.6c-0.3,0-0.8,0.1-0.9,0.3c-0.9,1.8-1.8,3.5-2.5,5.4c-5.1,13-10,26.1-15.3,39
	c-5.2,12.7-9.6,25.5-12.4,38.9c-0.1,0.7-0.3,1.3-0.4,1.9c-0.3,1.3-1.7,2.4-2.9,2.2c-2.3-0.4-4.6-0.9-6.9-1.2
	c-7.8-1.1-15.3-0.2-22.5,3c-7.5,3.3-8.4,4.4-5.9,12c0.8,2.5,1.6,5.1,2.5,7.6c0.2,0.5,0.8,0.9,1.5,1.6c2.4-1.7,4.7-3.4,7.2-5
	c4.6-3,9.7-4.2,15.2-3.6c4.7,0.5,9,2.5,12.7,5.4c2.1,1.6,4,3.4,6.1,5.1c0.6,0.5,1.4,0.3,1.6-0.5c0.5-2.2,0.9-4.5,1.1-6.8
	c0.4-4.3,1-8.6,2.3-12.7c4.8-14.9,8.9-30,12.5-45.2c0.5-2.3,1.2-4.5,3.2-6.5c0,1.6,0.1,2.9,0,4.2c-1,9.3-1.9,18.5-3,27.8
	c-0.8,6.6-1.6,13.2-2.6,19.8c-1.3,8.7-0.5,17.3,1.4,25.8c0.8,3.5,1,7.3,3.4,10.5c0.8-0.4,1.8-0.7,2.4-1.3c2.4-2.3,4.4-5,6.9-7.2
	c5.3-4.5,11.4-6.9,18.4-6.4c5.1,0.4,9.7,2.3,13.8,5.2c1.9,1.3,3.6,2.9,5.5,4.2c0.4,0.3,1.2-0.1,1.9-0.2c0-2.3,0.1-4.6,0-6.9
	c-0.4-9.7,0.7-19.2,3.7-28.5c3.8-11.7,7-23.6,10.6-35.4c0.9-2.8,1.9-5.6,3-8.4c0.2-0.4,1.1-0.6,1.7-0.8l0.2-0.1
	c-0.6,3.9-1.3,7.9-1.9,11.8c-2.1,13.5-4.3,26.9-6.2,40.4c-0.5,3.9-0.6,8-0.2,11.9c1.2,10.9,3.8,21.6,8.4,31.9c1-0.4,2.2-0.5,2.7-1.1
	c2.9-4.1,5.9-8.1,9.9-11.2c10.2-8.1,21.7-9.3,33.3-1.9c3.1,2,5.9,4.4,8.2,7.3c1.7,2.1,3.2,4.3,4.6,6.5c1.7,2.5,3.2,5.1,4.9,7.6
	c0.3,0.5,1,0.8,1.6,1.1c0.2,0.1,0.9-0.1,0.9-0.3c0.2-1.2,0.5-2.5,0.4-3.8c-0.6-11.7,0.4-23.3,3-34.7c3.7-16.2,7.3-32.4,10.9-48.7
	c1.7-7.4,2.9-15,5.6-22.2c0.2,0.3,0.5,0.5,0.5,0.6c0,1.7,0.2,3.3,0,5c-0.3,3.6-0.9,7.3-1.2,10.9c-0.9,10.3-1.8,20.5-2.7,30.8
	c-0.7,8-1.3,15.9-2.4,23.8c-1.6,12-0.9,23.9,1.4,35.7c0.1,0.6,0.5,1.2,0.7,1.9c0.3,0.8,2.1,1.2,2.5,0.6c1.7-2.1,3.2-4.2,4.9-6.3
	c5.8-7,12.8-12.5,21.1-16.5c9.8-4.7,19.3-4.1,28.4,1.9c5.3,3.5,10,7.7,14.3,12.4c1.8,2,3.6,3.9,5.4,5.8c0.2,0.2,0.6,0.2,0.8,0.2
	c0.8,0,1.3-0.4,1.3-1.2c0.6-9.6,1.3-19.2,1.8-28.9c1-22.3,1.8-44.6,2.7-66.8c0-1.1-0.4-2.4,1-3.7c0.8,2,1.2,3.9,1.4,5.9
	c0.3,3.3,0.5,6.6,0.6,10c0.9,20.6,1.7,41.2,2.6,61.8c0.3,7.3,1,14.6,1.5,21.9c0,0.3,0.3,0.8,0.5,0.8c0.6,0,1.5,0.1,1.8-0.2
	c2.3-2.4,4.5-4.9,6.8-7.3c4.9-5.1,10.2-9.6,16.4-12.8c5.2-2.7,10.7-3.5,16.5-2.5c3.3,0.6,6.4,1.8,9.4,3.3
	c7.9,3.9,14.5,9.3,20.1,16.1c1.7,2.1,3.2,4.2,4.9,6.3c0.2,0.2,0.6,0.5,0.9,0.4c0.5-0.2,1.2-0.5,1.4-0.9c0.5-1.2,1-2.5,1.2-3.8
	c1.5-10.5,2.9-21.1,1.1-31.8c-0.4-2.6-0.4-5.3-0.7-8c-0.9-9.9-1.8-19.9-2.8-29.8c-0.9-9.6-1.9-19.2-2.9-28.8c-0.1-1.3-0.1-2.7,0-4
	c0-0.4,0.5-0.7,1-1.3c0.9,3.1,1.8,5.9,2.5,8.8c4.6,20.4,9,40.9,13.6,61.3c2.1,9.5,3.1,19,2.9,28.7c0,1.7-0.1,3.3-0.1,5
	c0,1,0,2,0.1,3c0,0.8,0.4,1.2,1.3,1.1c0.3,0,0.7-0.2,0.8-0.4c2.2-3.3,4.5-6.6,6.7-9.9c3.7-5.7,8.3-10.4,14.4-13.5
	c7.5-3.9,15.2-4.5,23.1-1.2c4.4,1.9,8.1,4.6,11.2,8.1c2.2,2.5,4.1,5.2,6.2,7.8c1,1.2,2.6,1.1,3.2-0.2c3.2-7.3,5.4-15,6.8-22.9
	c1.4-7.6,1.8-15.1,0.5-22.8c-2.7-15.7-4.9-31.5-7.3-47.3l-0.1,0.2c1.1-0.2,2.1,0.1,2.6,1c0.6,1.2,1,2.5,1.3,3.8
	c4.2,14,8.5,28,12.6,42.1c1.9,6.4,2.9,13,2.7,19.7c-0.1,2.7-0.2,5.3-0.2,8c0,1.2,0,3,0.7,3.6c1.2,1,2.3-0.5,3.3-1.3
	c1.9-1.4,3.6-3,5.6-4.1c8-4.8,16.4-5.4,24.7-1c2.6,1.4,5,3.3,7.2,5.3c2,1.7,3.6,3.9,5.4,5.8c1.1,1.2,2.5,0.9,3-0.6
	c4.1-12.5,5.6-25.3,3.3-38.4c-0.6-3.6-1.1-7.2-1.5-10.9c-1.1-9.3-2.1-18.5-3.1-27.8c-0.3-3-0.9-5.9,0-9.1c1.9,3,2.6,6.2,3.4,9.4
	c3.1,11.6,6.2,23.2,9.6,34.6c2.5,8.3,4.9,16.6,4.8,25.4c0,0.3,0,0.7,0.2,1c0.4,0.5,0.8,0.9,1.3,1.2c0.2,0.1,0.7,0,0.9-0.2
	c2.3-1.9,4.4-4,6.9-5.7c8.9-6.2,18.7-6.7,28-0.6c1.9,1.3,3.7,2.8,5.7,4c0.3,0.2,1.5-0.1,1.7-0.5c2.2-3.8,2.8-8.1,3.9-12.3
	c0.7-2.6-0.1-4.2-2.7-5.7c-8.4-4.9-17.4-6.4-26.9-5.1c-2.3,0.3-4.6,0.8-6.9,1.1c-1.1,0.2-2-0.5-2.4-1.4c-0.7-1.9-1.2-3.8-1.6-5.8
	c-2.3-11.5-6.1-22.4-10.6-33.2c-3.4-8.3-6.7-16.7-9.9-25.1c-2.2-5.6-4.2-11.2-6.4-16.8c-0.6-1.6-1.3-3.1-2-4.6
	c-0.1-0.2-0.6-0.5-0.8-0.5c-0.5,0.3-1.1,0.7-1.2,1c-0.1,3.3-0.1,6.6-0.2,9.9c0,0.1-0.4,0.4-0.7,0.4c-1.2,0-1.7-1-2.2-1.8
	c-6.1-10.4-15.8-16-26.9-19.4c-4.8-1.4-9.6-2.5-14.7-2.8c-7.7-0.6-15.3-1-22.9-0.2c-3.4,0.4-6.5,0.1-9.4-2.1c-5-3.7-11-4.8-17-5.1
	c-4.6-0.2-9.3-0.1-13.9,0.5c-10.2,1.3-20.3,3.4-30.2,6.6c-3.8,1.3-7.6,2.5-11.4,3.8c-3.9,1.3-4.6,1.2-6.8-1.8
	c-4.3-5.7-9.7-10-15.7-13.7c-6.3-3.9-12.9-6.9-19.7-9.6c-8.4-3.3-16.9-6.1-25.6-8.2c-1.9-0.5-3.9-0.9-5.4-2.4
	c0.1-1.4,0.9-2.4,1.9-3.3c3.6-3.1,8-4.7,12.5-6c6.3-1.8,12.6-0.9,18.8,0.6c4.8,1.2,9.6,2.6,14.4,3.9c14.9,4.2,30,6,45.4,5.4
	c14.1-0.6,27.8-3,41-7.9c22.5-8.3,40.8-22.1,54.3-42.1c8.2-12.3,14.4-25.4,18.6-39.6c4.4-14.8,6.7-29.9,7.8-45.2
	c0.5-7.3,0.7-14.6,1.1-21.9c0.1-1.3,0.1-2.7,0.2-4c0.1-0.7,0.2-1.3,0.4-1.9c0.1-0.3,0.5-0.7,0.7-0.7c0.5,0.1,1.3,0.3,1.5,0.7
	c4,8.5,6.4,17.5,8.2,26.6c0.7,3.6,1.1,7.3,2.1,10.8c2.7,10,8.6,17,18.9,20.1c3.2,1,6.5,1.3,9.8,1.5c10.7,0.6,21.3-0.7,31.7-3.1
	c13.3-3,26.5-6.5,39.7-9.7c4.5-1.1,9-2.3,13.6-3.1c12.2-2,24.4-3.3,36.7-3.9c20.6-1.1,41.2-2.3,61.9-2.5
	c58.3-0.5,116.5-1.3,174.8-1.9c18.8-0.2,37.1-3.1,55.1-8.2c17.1-4.9,33.1-12,47.7-22.3c21.9-15.5,37.2-35.9,45.6-61.4
	c2.5-7.6,4.3-15.3,4.7-23.4c0.3-6.3,0.5-12.6-0.1-19c-0.3-2.6-0.4-5.3-0.5-8c0-0.7,0.3-1.4,0.8-3.8c1.1,5.9,2.2,10.1,2.6,14.4
	c2.6,26.9-0.3,53.1-9.1,78.7c-8.5,24.8-20.8,47.5-35.9,68.8c-18.4,25.9-40,48.9-64.2,69.5c-5.3,4.5-10.9,8.8-16.4,13.1
	c-3,2.3-4.1,2.3-7,0c-9.5-7.4-19.9-13.3-30.6-18.8c-10.1-5.1-20.4-9.7-31-13.9c-25.4-10.1-51.4-18.2-77.8-25
	c-16.8-4.4-34-6.4-51.4-6.1c-17,0.3-33.9,2.3-50.5,6c-28,6.3-54.9,16.1-80.5,29.2c-2.1,1.1-4,2.2-6,3.4c-0.9,0.5-0.8,1,0,1.4
	c10.6-4,21.2-7.9,31.8-11.8c5.3-2,10.6-3.8,16-5.7l-0.1,0.1c0.1,0.6,0.5,1.5,0.3,1.7c-1.4,1.4-2.9,2.6-4.5,3.8
	c-6.8,5.3-13.6,10.6-20.3,15.9c-1,0.8-2,1.7-2,3.2c-1.3,0-2.1,0.5-1.8,2c-1.7,0.4-1.3,1.7-1.2,2.9c-0.8,0.1-0.9-0.1-0.3-0.4
	c0,0.2,0.1,0.4,0.1,0.6c0.4-1.1,0.8-2.2,1.2-3.3c1.3,0,2.2-0.3,1.9-1.9c1-0.1,2.1,0.2,2.9-0.2c2.1-1.1,4-2.4,6-3.6
	c20.5-13,42.8-21.4,66.5-25.8c28.1-5.2,56.2-5.3,84.4-0.6c28.8,4.8,56.2,13.6,82.5,26c20.5,9.7,39.9,21.3,58,35
	c2.1,1.6,3.9,3.7,7.1,4.1c1.8-0.9,3.9-1.9,5.9-3.1c24.3-14.6,46.9-31.5,67.4-51.3c18.5-17.9,34.8-37.6,47.9-59.8
	c20-34.1,30.2-70.7,29.6-110.4c-0.2-12-1.3-23.9-3.6-35.7c-5.1-26.1-15.1-50.3-29-72.8c-1.4-2.3-2.8-4.5-4.4-6.6
	c-0.5-0.7-1.6-1-2.4-1.5c-1.7,2-1.9,4.4-2.3,6.6c-2.3,11.1-4.5,22.2-6.7,33.2c-1,4.9-1.8,9.8-2.8,14.7c-0.3,1.5-0.5,3.2-2.5,4.1
	c-2.5-8.4-3.2-17-4.3-25.6c-1.1-8.9-2.1-17.8-3-26.8c-1.2-11.9-2.4-23.8-3.3-35.8c-0.7-9.3-0.8-18.6-1.2-27.9c0-1-0.3-2-0.4-2.9
	c-0.1-0.8-1.7-1.6-2.4-1.1c-4.1,2.9-8.3,5.6-12.1,8.7c-17,13.8-31.4,29.6-40.8,49.7c-2.9,6.3-6.4,12.4-9.6,18.6
	c-0.6,1.1-1.2,2.3-3.1,2.6c0.1-1.4-0.1-2.7,0.2-3.9c1.7-7.8,3.4-15.6,5.4-23.3c6.7-25.8,15.5-50.9,27.3-74.9
	c6.7-13.8,14.5-26.9,24.4-38.8c1.7-2.1,3.3-4.1,5-6.3c10.7-14.2,19-29.6,24.1-46.8c0.7-2.2,1.2-4.5,1.7-6.8c0.6-2.8-0.9-4.6-3.6-4.6
	c-5.8,0-11.2,1.7-16.2,4.5c-1.7,0.9-3.1,2.5-4.3,4.1c-1,1.3-1.7,2.9-2.3,4.4c-7.1,16.9-16.7,32.5-26.5,48
	c-7.8,12.4-15.5,24.8-23.2,37.2l0.3,0.2c-0.8-1.6-0.8-3.3-0.1-4.8c2.2-4.8,4.3-9.7,6.8-14.4c4.9-9.4,10.1-18.7,15.1-28.1
	c4.3-8.2,8.4-16.6,12.5-24.9c1-2.1,1.9-4.3,2.7-6.4c0.9-2.4-1-4.7-3.7-4.2c-1.6,0.3-3.3,0.5-4.9,1c-8.9,2.8-17.7,5.8-26.1,9.7
	c-4.2,2-8.2,4.3-12.3,6.5c-4.5,2.4-6.9,6.2-7.3,11.2c-0.3,3.3-0.4,6.6-0.4,9.9c-0.1,14.9-3.4,29-10.8,42c-0.5,0.8-1.1,1.7-1.8,2.3
	c-0.4,0.3-1.2,0.2-2.1,0.3c-0.7-5.2-1.6-10.5-2.1-15.7c-0.4-3.7-1.2-7.2-2.2-10.7c-0.2-0.6,0-1.8-1.5-1.5c0,3,0.1,6,0,9
	c-0.3,7.3-0.2,14.6-1,21.9c-2.3,20.9-7.6,41.1-15.6,60.5c-5.6,13.5-12.4,26.4-20.3,38.8c-0.9,1.3-1.6,3-3.5,3.1c0,0,0.2,0.2,0.2,0.2
	c0-1-0.3-2.1,0.1-2.9c1.4-3,3-5.9,4.6-8.8c7.3-14.2,13.7-28.8,18-44.2c2.7-9.6,5-19.3,5.2-29.3c0.2-7.3,0.1-14.6-0.3-21.9
	c-0.2-4.6-1.2-9.2-1.9-13.8c-0.3-2-1.2-3.8-2.6-5.3c-0.8-0.9-2.7-1-3.5-0.1c-0.7,0.7-1.5,1.4-1.9,2.3c-0.8,1.8-1.7,3.6-2.1,5.5
	c-1,4.5-1.8,9.1-2.7,13.7c-5,24.5-13,48-23.5,70.7c-3.5,7.5-7.5,14.8-11.4,22.1c-0.4,0.8-1.4,1.2-2.2,1.8l0.2,0.2
	c-0.4-1.7,0-3.3,0.6-4.8c2.2-5.6,4.5-11.1,6.5-16.7c10.5-29,16.6-58.8,18.3-89.6c1.1-20-0.6-39.9-3.8-59.6c-0.2-1.3-0.4-2.7-1-3.8
	c-0.6-1.2-0.4-2.9-2-3.7c0,2.2-0.2,4.2,0,6.1c1.1,11.6,1.2,23.3,0.9,34.9c-0.5,17-2,33.8-5.6,50.5c-7.6,35.1-25.2,64.1-53.4,86.5
	c-7.6,6-15.5,11.5-23.8,16.4c-33.6,20-69.5,33.1-108.6,36.7c-12,1.1-23.9,1.4-35.9,0.5c-16.6-1.2-33-3.8-49-8.6
	c-2.2-0.7-4.5-1.2-6.9-0.8c-0.6-0.6-1.2-1.4-1.9-1.6c-1.4-0.5-3-0.4-4.4,0.2c0.1-1-0.2-1.8-1.2-2.1c-0.9-0.3-1.8-0.3-2.7-0.5
	c-1.5-0.9-3-1.8-4.6-2.7c-0.7,0-1.5-0.1-2.2-0.1c0.8,0.1,1.6,0.1,2.4,0.2c0.7,2.7,2.7,2.4,4.7,2.3c0,0.9,0.3,1.7,1.3,2
	c0.8,0.3,1.7,0.4,2.5,0.6c1.8,1.7,3.9,2.2,6.3,1.5c0.2,1.1,0.9,1.7,1.8,2.1c11.2,4.1,22.7,7.5,34.4,10.2c3.2,0.7,6.5,1.5,9.7,2.3
	c0.3,0.1,0.4,0.5,0.9,1c-2.7,0.8-5.2,0.5-7.7,0.2c-12.2-1.4-24.4-3-36.4-5.9c-15.6-3.8-30.6-9-44.2-17.7c-1.7-1.1-3.5-1.9-5.3-2.8
	c-0.6-0.3-1.3-0.4-1.9-0.4c-0.2,0-0.6,0.3-0.8,0.6c-0.2,0.2-0.4,0.6-0.3,0.8c0.3,0.9,0.6,1.9,1.1,2.7c3.3,4.7,7.3,8.6,11.5,12.4
	c19.6,17.7,41.2,32.5,65.5,43.2c1.5,0.7,3,1.3,4.5,2.2c0.4,0.2,0.4,1.1,0.6,1.7l0.2-0.2c-2.3,0.5-4.6,0-6.8-0.7
	c-2.9-0.8-5.7-1.8-8.5-2.6c-13.9-4.3-27-10.5-39.9-17.2c-1.1-0.7-2.3-1.2-3.6-0.4c-0.5,0.3-1.2,0.1-1.9,0.2
	c-0.2-1.4-0.3-2.9-0.5-4.3c-1.6,0.1-3.2,0.1-4.8,0.2c-1.6-0.6-1.7-2.1-2.3-3.3c-0.2-0.1-0.3-0.2-0.5-0.3c0.1-0.1,0.3-0.3,0.4-0.4
	C1278.3,1851.5,1278.4,1851.6,1278.4,1851.8z M726.9,1852.2c0.8-0.4,0.9-0.3,0.4,0.5c0,0-0.5-0.3-0.6-0.4c0.7,0.3,0.7,0.4-0.1,0.4
	C726.6,1852.5,726.8,1852.3,726.9,1852.2z M1275.7,2292.5l0.1-0.5c0,0,0,0.7,0,0.6c-2.5-0.2-2.5-0.2-2.4,2c-0.9-0.6-1.9-0.7-2.7-0.1
	c-0.8,0.6-1.4,1.4-2,2.2c-6.4,9.3-12.7,18.7-19.1,28c-0.7,1.1-1.7,2.1-2.2,3.3c-0.6,1.2-1,2.5-1,3.8c-0.1,1.6,0.2,3.3,0.5,5
	c2.3,14.2,2.5,28.5,2,42.8c0,1,0,2,0,3c0,1.8,1.2,3,3.1,3.2c9.4,0.8,18.6-0.5,27.6-3.2c3.8-1.2,7.5-2.7,11.2-4.2
	c3.6-1.5,6-4.1,6.4-8.2c0.5-4.3,1.2-8.6,1.4-12.9c0.6-12.3-0.2-24.6-2.1-36.8c-0.8-5.6-2-11.1-3.9-16.5c-1.7-4.7-4-9.2-7.9-12.5
	c-0.7-0.6-1.6-1.1-2.5-1.4c-0.4-0.1-1,0.5-1.7,0.9c6.1,5.8,8.6,13.3,10.4,21.2c2.1,9.1,2.8,18.4,3.4,27.7c0.5,9,0.3,17.9-1,26.9
	c-0.6,4.2-2.7,6.7-6.4,8.1c-3.7,1.4-7.5,2.9-11.3,3.9c-6.1,1.6-12.3,3-18.7,2.8c-1,0-2-0.3-2.9-0.5c-0.2,0-0.5-0.5-0.4-0.6
	c0.2-0.6,0.4-1.5,0.7-1.6c3.2-0.7,6.5-1.1,9.7-1.8c2.4-0.5,4.2-1.7,4.9-4.3c1.9-6.4,3-13,3.6-19.6c1.2-14.3,2.1-28.5,1.4-42.9
	c-0.3-5.3-0.4-10.6-0.6-16C1274,2293.6,1274.9,2293,1275.7,2292.5z M731.5,2291.3c0,1.4,0.5,2.3,2.1,2.2c-1.6,5.2-1.4,10.5-1.7,15.8
	c-0.8,15.3,0,30.6,1.7,45.8c0.6,5.9,1.6,11.8,3.4,17.6c0.6,2.1,1.9,3.4,3.9,4c1,0.3,1.9,0.5,2.9,0.6c2.6,0.4,5.2,0.8,7.8,1.2
	c0.8,0.1,1.2,0.8,0.9,1.5c-0.2,0.5-0.7,0.9-1.2,1.1c-0.6,0.2-1.3,0.3-2,0.3c-6.7,0.1-13.2-1.3-19.6-3c-4.5-1.2-8.9-2.6-13-4.9
	c-1.8-1-3.2-2.4-3.5-4.5c-0.6-3.6-1.3-7.2-1.5-10.8c-0.7-13.3-0.1-26.6,2-39.8c1.6-9.9,3.7-19.7,11-27.1c-0.5-1.4-1.5-1.4-2.2-0.9
	c-2.6,1.6-4.4,4-6,6.6c-2.6,4.3-4.1,9-5.3,13.9c-4.2,17.6-4.7,35.5-3.6,53.5c0.1,2.3,0.8,4.6,1.2,6.9c0.5,3.3,2.5,5.3,5.4,6.7
	c12.2,5.8,25.1,8.6,38.6,7.9c3-0.2,4.1-1.4,4.1-4.3c0-1.3-0.1-2.7-0.2-4c-0.5-13.6-0.2-27.2,2-40.7c0.4-2.3,0.4-4.6,0.5-6.5
	c-0.3-0.8-0.4-1.1-0.6-1.4c-7.7-11.3-15.3-22.5-23-33.7c-0.5-0.7-1.6-1.1-2.4-1.6c-0.1-1.2-0.9-1.9-2.1-2.2
	c-0.1-0.3-0.2-0.6-0.4-0.8c-0.1-0.1-0.4,0-0.6,0C730.7,2291,731.1,2291.1,731.5,2291.3z M714.5,1821.1c-0.2-0.2-0.6-0.4-0.6-0.6
	c0.1-0.7,0.7-1,1.3-0.6c0.1,0.1,0.2,0.6,0.1,0.7c-0.2,0.2-0.5,0.1-0.8,0.1c-0.6,0.4-1.5,1.2-1.2-0.4
	C713.4,1820.1,714.3,1820.4,714.5,1821.1z M579.5,1348.8c-1.8-2.2-2.3-2.3-5.5-0.9c0.4-1.2,1.1-2.5-0.6-3.4
	c-4.1-2.2-8.1-4.6-12.2-6.7c-16.6-8.5-33.8-15.5-51.9-20.1c-3.6-0.9-7.1-1.8-10.8-1.6c-0.9,0-1.9,0.5-2.7,1
	c-0.5,0.3-0.8,1.1-0.8,1.7c0,0.5,0.4,1.5,0.8,1.6c2.9,0.7,5.8,1.3,8.8,1.7c14,1.8,27.2,5.9,40,11.7c8.2,3.7,16.4,7.3,24.5,11
	c1.8,0.8,3.4,2,5.2,2.9c1.8,0.3,3.7,0.5,5.5,0.8c0.3,0.3,0.6,0.6,0.8,0.9C580.3,1349.3,579.9,1349,579.5,1348.8z M626.2,1328
	c0.2-0.1,0.4-0.2,0.6-0.3C626.6,1327.8,626.4,1327.9,626.2,1328c0.7-1.1,1.5-2.4,1-3.6c-1.3-3-2.7-5.9-4.3-8.7
	c-0.4-0.7-1.5-1.4-2.4-1.4c-1.6-0.1-3.2,0.1-4.8,0.4c-0.7,0.1-1.1,0.8-0.7,1.5c1.6,2.9,4.5,4.6,6.8,6.9
	C623.4,1324.5,625.7,1325.5,626.2,1328z M1431.9,1348.1c0.6-1.8,2.3-2.3,3.7-3c9.3-4.2,18.7-8.4,28.1-12.5
	c11.6-5.1,23.6-8.7,36.1-10.4c2.6-0.3,5.2-1.1,7.7-1.8c0.4-0.1,0.8-1,0.8-1.6c0-0.6-0.3-1.4-0.8-1.7c-0.8-0.5-1.8-1-2.7-0.9
	c-2.9,0.4-5.9,0.9-8.8,1.6c-22,5.5-42.5,14.7-62.3,25.5c-0.9,0.5-1.6,1.2-2.4,1.8C1431.6,1346.2,1431.7,1347.2,1431.9,1348.1
	c-0.5-0.3-1-0.7-1.6-0.9c-0.3-0.1-0.6-0.2-0.8-0.2c-0.2,0-0.4,0.3-0.6,0.4c0.4,0.1,0.8,0.3,1.3,0.4
	C1430.7,1347.9,1431.3,1348,1431.9,1348.1z M625.3,2279.8c0-1.4-0.5-2.2-2.1-2c-0.9-1.9-2.5-2.7-3.5-1.6c-1.3,1.4-2.8,2.9-3.8,4.5
	c-2,3.1-2.9,6.7-3.7,10.2c-3.2,15-3.6,30.2-2.4,45.5c0.1,1.3,0.5,2.6,0.9,3.9c0.5,1.6,1.4,3,3,3.8c6.5,3.5,13.3,5.8,20.8,5.9
	c1,0,2.5-1.5,2.5-2.6c0-2.3-0.1-4.6-0.1-7c-0.2-9.6-0.2-19.3,1.2-28.8c2.1-14.1,2.2-10.1-4.6-21.1c-1.9-3.1-3.8-6.2-5.8-9.3
	C627.1,2280.4,626.4,2279.8,625.3,2279.8z M713.3,2175.2c-10.2,16.7-19.5,34-28,51.6c-3.2,6.6-5.5,13.5-7.2,20.7
	c-0.4,1.9-0.2,4-1.6,5.6c-1.6,0.9-3.2,0.4-4.9,0.4c-3.3,0-6.6-0.2-9.9,0.1c-5.5,0.4-10.2,2.6-14.5,5.9c-1.1,0.9-1.9,2.2-1.6,3.4
	c0.8,3.5,1.9,7,3,10.5c0.2,0.5,1,0.8,1.7,1.4c1.5-1.1,3.1-2.2,4.7-3.4c6.9-5.4,18.1-5.2,25.1,0.3c1,0.8,2,1.7,3.1,2.5
	c0.8,0.6,1.4,1.4,2.3,1.9c0.5,0.3,1.2,0.1,1.8,0c0.2,0,0.4-0.6,0.4-0.9c-0.2-13.1,2.7-25.7,6.6-38.1c3.2-10.1,6.6-20.2,9.9-30.3
	c2.7-8.2,5.4-16.4,8.2-24.6c0.8-2.3,1-4.5,0.7-6.8c0.5-0.4,0.6-0.3,0.3,0.1C713.3,2175.5,713.3,2175.3,713.3,2175.2z M1291.7,2179.3
	c-0.4-0.6-0.3-1,0.2-1.4c0,0.3,0.2,0.5,0.1,0.7c-0.1,0.2-0.3,0.4-0.5,0.6c1.7,1.7,2.1,4.1,2.8,6.3c3.1,9.1,6.1,18.3,9.1,27.4
	c4.2,12.6,8.4,25.2,11.7,38.1c1.7,6.5,2.3,13.1,2.4,19.7c0,2,0,4,0,6c0.6,0.1,1.4,0.5,1.8,0.3c1.8-1.4,3.5-3,5.2-4.5
	c7.6-6.4,18.7-6.6,25.9-1.2c1.1,0.8,2.1,1.7,3.1,2.5c2.2,1.7,3.1,1.3,4.2-1.6c1-2.8,1.7-5.7,2.3-8.6c0.3-1.4-0.2-2.6-1.3-3.6
	c-3.9-3.3-8.4-5.3-13.4-6.1c-4.3-0.7-8.6-0.6-12.9-0.1c-1.3,0.2-2.6,0.2-3.7-0.9c-0.2-0.6-0.6-1.2-0.7-1.8c-2-11.6-6.5-22.3-12-32.6
	c-6.1-11.4-12.3-22.8-18.5-34.1c-0.9-1.7-2-3.4-3.3-4.9C1293.8,2178.4,1292.6,2178.7,1291.7,2179.3z M1336.9,2281.8
	c-1.2,0.3-2,0.9-2.1,2.2c-1.5-0.1-2.5,0.9-3.2,1.9c-6.1,9.5-12.2,19-18.3,28.5c-1.3,2.1-1.7,4.2-1.4,6.6c1.2,9.9,2.4,19.8,2.2,29.8
	c-0.1,4.6-0.5,9.3-0.8,13.9c-0.1,1.8,1.1,3,3.1,3.1c1,0.1,2,0.1,3,0.1c8.4,0,16.4-2.2,24.2-5.1c6-2.2,8.8-6.1,9.3-12.6
	c1-13,0.6-25.9-0.7-38.8c-0.6-5.9-1.7-11.8-3.6-17.6c-1.4-4.1-3.1-8.1-6.2-11.2c-0.9-0.9-2.1-1.6-3.3-2.1
	C1338.2,2280.2,1337.3,2280.6,1336.9,2281.8z M669.1,2281.8c-0.7-1.5-2.1-1.7-3.3-1c-3,1.6-5,4.3-6.5,7.3c-1.9,3.9-3.2,8-4.1,12.2
	c-2.3,11.1-3,22.4-3.4,33.7c-0.2,7,0.5,13.9,1.6,20.8c0.4,2.5,1.7,4.3,3.8,5.6c0.6,0.4,1.1,0.7,1.7,1c9.5,4.5,19.3,7,29.9,6.5
	c0.7,0,1.4-0.1,1.9-0.4c0.5-0.3,1-0.8,1.2-1.4c0.2-0.6,0.2-1.3,0.1-2c-1-12-0.8-23.9,0.8-35.8c0.4-2.6,0.5-5.3,0.8-7.9
	c0.3-2.4-0.4-4.5-1.7-6.6c-5.9-9.2-11.8-18.5-17.7-27.7c-0.4-0.6-0.8-1.1-1.3-1.5c-0.5-0.4-1.2-0.5-1.7-0.8
	C671.1,2282.6,670.3,2282,669.1,2281.8z M649.8,2184.9c-0.7,0.7-1.7,1.2-2,2.1c-1.2,3.1-2.3,6.2-3.4,9.4c-3.8,11-8.1,21.8-13.4,32.2
	c-0.3,0.6-0.6,1.2-0.9,1.8c-0.7,1.3-1.8,2.2-2.2,1.6c-0.3-0.5-0.8-1.1-0.9-1.6c-0.9-8.3-1.2-16.6-0.9-24.9
	c0.4-11.3,0.7-22.6,3.2-33.7c0.8-3.6,1.5-7.2,1.8-10.8c1.4-19.2-1.3-37.8-8-55.8c-2.1-5.6-4.8-10.9-8.1-15.9c-2-3-4.8-4.5-8.3-4.7
	c-0.3,0-0.8,0.1-0.8,0.3c-0.3,0.5-0.6,1.2-0.4,1.7c0.6,1.5,1.3,3,2.1,4.5c8.7,17.1,13.4,35.3,14.3,54.5c0.5,11.7-0.2,23.3-1.3,34.8
	c-1.5,14.6-1.7,29.2-1,43.8c0.3,4.9,1.1,9.9,2.3,14.7c1.3,5.5,3.5,10.7,7.3,15.1c0.9,1.1,2,1.6,3.4,1.3c1.4-5.1,2.9-10.2,4.3-15.3
	c1.8-6.4,3.8-12.7,5.5-19.2c3.1-11.9,6.3-23.7,7.6-36c-0.2-0.2-0.4-0.4-0.4-0.7c0-0.2,0.1-0.4,0.2-0.6
	C649.7,2183.9,649.7,2184.4,649.8,2184.9z M1356.3,2186.4c-0.2-0.6,0.8-1.7-0.7-1.7c0.3,0.5,0.6,1,0.9,1.5c0.3,3.3,0.3,6.7,1,9.9
	c3.2,15,7,29.8,11.6,44.4c1.1,3.5,2.1,7,3,10.5c0.3,1,0.3,2,0.6,2.9c0.2,0.5,0.7,1.2,1.2,1.3c0.6,0.1,1.4-0.1,1.8-0.5
	c5-4.8,7.3-11.1,8.7-17.6c1.2-5.5,2.2-11.1,2.2-16.8c-0.1-9.3,0-18.6-0.4-28c-0.4-8.6-1.2-17.3-2-25.9c-0.8-8.7-0.7-17.3,0-25.9
	c1.5-17.5,6-34,14-49.6c0.8-1.5,1.4-3,2.1-4.5c0.3-0.8,0.1-1.3-0.7-1.7c-0.3-0.1-0.6-0.3-0.9-0.3c-3.2,0.2-5.7,1.4-7.6,4.1
	c-4.6,6.6-7.8,13.9-10.3,21.5c-5.4,16.7-7.3,33.8-6.1,51.2c0.2,2.6,0.8,5.3,1.2,7.9c0.9,5.6,2.2,11.1,2.6,16.8
	c1.2,14.3,1.1,28.6,0.4,42.9c0,0.3-0.1,0.7-0.1,1c-0.1,1.4-1,2.6-1.6,2c-0.5-0.4-1.1-0.7-1.4-1.3c-5.1-9.8-9.5-19.8-13.1-30.2
	c-1.5-4.4-3.2-8.8-4.9-13.1C1357.7,2186.8,1356.8,2186.7,1356.3,2186.4z M947.9,2314.9c-0.9,0.3-2.1,0.3-2.7,0.9
	c-2.7,2.5-5.4,5-7.7,7.7c-4.1,5-6.5,10.6-6.8,17.3c-0.5,11.3-1.6,22.6-2.3,33.8c-0.5,9.3-0.7,18.6-0.9,27.9
	c-0.2,6,0.8,11.9,1.4,17.9c0.7,6.9,4.3,10.9,10.7,12.8c1.3,0.4,2.5,0.8,3.8,1.2c8.3,2.6,16.8,4.2,25.4,4.9c5.3,0.4,10.6,0.2,16,0.3
	c1.3,0,2.7-0.1,4-0.4c2.1-0.4,3.6-1.7,4.5-3.5c1.4-2.7,1.7-5.7,1.9-8.7c1.6-24.9,0.8-49.9,0.4-74.8c-0.1-3.1-0.9-5.9-2.2-8.6
	c-5.5-11.5-12.9-21.7-22.8-29.9c-8.7-7.3-11.3-7.9-21.8-0.3c-0.2,0.2-0.4,0.5-0.5,0.8c-0.1,0.3,0,0.7,0,1L947.9,2314.9z
	 M1060.3,2316.5l-0.1,0.1c-0.3-0.6-0.4-1.4-0.8-1.7c-3.2-2.9-7-5-11.1-6.5c-1.9-0.7-3.9-0.5-5.8,0.3c-3.4,1.6-6.2,3.9-8.9,6.3
	c-7.2,6.5-13.1,14.1-18,22.5c-3.6,6.1-5.7,12.6-5.7,19.8c0.1,17.9-0.3,35.9-0.2,53.8c0,6.3,0.8,12.6,1.3,18.9
	c0.1,1.6,0.6,3.3,1.1,4.8c0.8,2.3,2.5,3.9,5,4.4c1.3,0.3,2.6,0.3,4,0.4c11.7,0.6,23.2-0.5,34.6-3.4c4.2-1.1,8.3-2.5,12.4-3.8
	c4.9-1.5,7.6-5.1,8.5-10c0.3-1.6,0.5-3.3,0.7-4.9c1.3-10.6,1.4-21.2,0.7-31.8c-0.9-15.2-2-30.5-2.9-45.7c-0.2-4.1-1.4-7.8-3.4-11.3
	c-2.5-4.4-5.6-8.2-9.6-11.4C1061.6,2316.8,1060.9,2316.7,1060.3,2316.5z M295.4,1118.8c1.3,0.3,2.6,0.5,3.8,1.1
	c2.7,1.3,5.3,2.8,8,4.2c22.7,11.9,45.5,23.5,69.1,33.6c10.4,4.5,20.9,8.7,31.7,12.1c7.6,2.4,15.4,4.4,23.4,4.9
	c10.6,0.6,21.3,0.6,31.9-0.5c8.6-0.9,17.2-2,25.8-3c17.8-2.2,35.5-5.6,53.1-9.1c2.3-0.5,4.5-1.2,6.7-1.9c0.4-0.2,1-1.1,0.9-1.5
	c-0.3-1.6-0.6-3.2-1.3-4.7c-8.2-19.3-16.4-38.6-24.7-57.8c-0.4-0.9-0.8-1.8-1.3-2.7c-0.7-1.2-1.7-2.1-3.2-2.1c-3.7,0-7.3,0.1-11,0
	c-14-0.2-26.9-4.3-38.6-11.8c-3.4-2.2-6.6-4.5-9.8-6.9c-7.1-5.6-14.1-11.1-21-16.9c-42.5-35.9-83-74-122.1-113.6
	c-19.2-19.4-37.9-39.3-55.5-60.2c-14-16.5-27.5-33.4-38.4-52.2c-0.3-0.6-0.7-1.2-1.2-1.6c-0.4-0.3-1.1-0.4-1.6-0.5
	c-0.1,0-0.4,0.6-0.4,0.9c0.2,1.6,0.2,3.3,0.6,4.9c2.4,9.1,5.9,17.6,10.4,25.9c5.7,10.6,12.5,20.5,19.8,30
	c16,20.9,33.2,40.8,51.6,59.7c22.1,22.7,45.1,44.4,68.6,65.5c23.8,21.3,47.9,42.3,71.9,63.4c1.7,1.5,3.5,3.1,5.2,4.7
	c0.4,0.4,0.5,1.1,0.7,1.7c0.2,0.6-1,1.4-2.3,1.5c-3,0.1-6,0.2-9,0.1c-11.6-0.3-23.3-0.7-34.8-2.4c-9.9-1.5-19.7-3.4-29.2-6.4
	c-12.2-3.8-23.4-9.6-32.9-18.2c-7.7-6.9-15.4-13.8-22.8-21c-23.6-23-45.8-47.4-66.7-72.9c-15-18.3-29.2-37.2-41.8-57.2
	c-6-9.6-11.6-19.4-16.3-29.7c-3.3-7.3-6.2-14.7-8-22.6c-1.8-7.9-2.3-15.8,0-23.7c4.9-17,11.5-33.3,20.6-48.6
	c7.7-13,17.1-24.5,28.9-34.1c3.9-3.2,7.7-6.4,11.5-9.6c2.5-2.2,5-4.4,7.4-6.7c9.3-8.8,14.6-19.6,16.7-32.2
	c2.1-12.8,3.2-25.8,3.6-38.7c0.3-11,0.4-22,0.4-33c0.1-23.6-0.1-47.3,0.3-70.9c0.5-30.6,1.8-61.2,5.7-91.7c1.5-11.2,3-22.4,5.9-33.4
	c9.5-35.7,30.3-62.5,63.1-79.8c3.8-2,7.8-3.8,11.8-5.5c3.4-1.4,6.8-2.7,10.3-3.9c3.2-1,4.8-3,5.6-6.3c1.8-7.4,3.9-14.8,6-22.1
	c4.7-16,10.1-31.7,16.3-47.1c0.9-2.1,1.4-4.4,2.1-6.6c0-0.2-0.4-0.7-0.6-0.7c-0.9,0-1.9,0.1-2.7,0.4c-12.2,5.2-24.4,10.6-36.7,15.7
	c-7.4,3-15,5.5-22.7,7.4c-9.2,2.3-18.5,2.3-27.7,0.6c-6.5-1.2-13-2.8-19.5-4c-10.4-2-20.5-1.3-30.4,2.6c-5,1.9-9.8,4.2-14.3,7.1
	c-5,3.3-9.9,6.7-14.6,10.4c-13.7,10.7-25.3,23.6-36.1,37.2c-16.4,20.7-30.5,42.8-43.3,65.9c-26.3,47.7-46.2,98.1-60.4,150.6
	c-7,25.7-12.5,51.7-16.4,78.1c-1.6,10.9-3.2,21.7-4.2,32.7c-1.2,13.3-2.4,26.5-3.1,39.8c-0.6,10.3-0.6,20.6-0.7,31
	c-0.2,23.3,0.7,46.6,3,69.8c2.3,23.2,5.7,46.2,10,69.1c7.7,40.9,17.4,81.3,29.6,121.1c18.5,60.3,42,118.5,72,174
	c19.6,36.4,41.7,71.2,67.1,103.9c8.8,11.3,18.1,22.2,27.7,32.8c4.8,5.3,10.5,9.2,17.2,11.5c4.7,1.6,9.5,3.1,14.3,4.3
	c20.7,5.2,41.8,7.8,63,9.9c12.3,1.2,24.6,1.9,36.8,2.8c16.3,1.1,32.6,1.3,48.9,1.3c2,0,4-0.1,6-0.2c3.3-0.2,5.6-1.9,6.8-5
	c1.2-3.1,2.5-6.2,3.5-9.3c1-2.8,1.6-5.8,2.5-8.6c1.2-3.5,2.5-6.9,4.7-9.9c3.1-4.3,7.1-6.9,12.6-7c1.3,0,2.7,0,4,0
	c36,0.3,71.9-1.3,107.9-1.9c2,0,3.9-0.4,5.8-0.5c1-2.8-0.6-4.7-1.5-6.8c-1-2.4-2.9-3.6-5.5-3.5c-4,0.1-8,0.2-12,0.3
	c-21.6,0.5-43.3,0.9-64.9,1.4c-14.3,0.3-28.6,0.6-42.9,0.9c-2,0-4,0.2-6.1,0.3c-1.3,2-2.4,4-3.7,5.9c-1.1,1.6-2.4,3.2-3.7,4.7
	c-1.2,1.4-4,1.9-5.6,1c-2.3-1.4-4.6-2.7-6.6-4.5c-12.7-10.8-25.5-21.4-36.7-33.8c-5.8-6.4-11.9-12.6-17.7-19
	c-28.9-32.2-57.9-64.4-86.7-96.6c-7.5-8.4-14.8-17.1-22.3-25.6L295.4,1118.8z M607.1,113.7l-0.2-0.3c0.6,1.3,0.3,2.5-0.4,3.7
	c-5.7,9.8-11.6,19.4-16.9,29.4c-16.6,31.2-29.4,64.1-40.1,97.7c-9.8,30.8-17.4,62.1-23.4,93.9c-3.7,19.6-6.9,39.3-8.9,59.2
	c-0.8,7.6-1.7,15.2-2.3,22.8c-1.2,14.9-2.6,29.9-3.1,44.8c-1.3,39.3-1,78.6,3.4,117.7c1.5,13.2,2.8,26.5,4.8,39.6
	c3.7,24.7,8.6,49.2,14,73.5c11.7,52,26,103.2,43.3,153.6c14.5,42.5,30.8,84.4,50,125.1c8.1,17.2,16.7,34,26.4,50.4
	c5.3,8.9,11,17.5,17.1,25.8c9.1,12.5,20.8,21.4,35.5,26.4c1.9,0.6,3.8,1.3,5.6,2c13.9,4.8,28.3,7.4,42.8,9.4
	c15.5,2.2,31.2,2.9,46.8,3.7c6.6,0.3,13.3,0.2,20,0.3c1.7,0,3.3-0.1,5-0.2c1.9-0.1,3.2-1.5,2.9-3.2c-0.3-2-0.7-3.9-1.2-5.9
	c-3.7-14.5-7.5-29-11.1-43.5c-5.3-21.6-10.5-43.3-15.7-65c-0.2-1-0.4-1.9-0.7-2.9c-0.4-1.6-2-2.6-3.8-2.6c-1.3,0-2.7,0-4,0.1
	c-11,1.1-22,0.5-32.9-0.5c-10.7-1-21-3.3-30.9-7.6c-7.5-3.2-14-7.7-19.2-14c-4.4-5.4-8.7-11-12.7-16.7
	c-7.1-10.1-13.4-20.7-19.4-31.4c-19.6-34.9-36.3-71.1-50.5-108.5c-8.2-21.8-15.5-43.9-20.9-66.6c-4.5-19.2-7.8-38.5-7-58.3
	c0-0.3,0-0.7,0-1c-0.1-0.8,0.2-2-1-2.2c-0.3-0.1-1,0.8-1.2,1.3c-2.3,7-3.6,14.2-3.9,21.5c-0.6,13.4,0.5,26.6,3.1,39.7
	c2.9,15.1,7,29.8,11.9,44.3c11.8,34.7,25.7,68.6,41.2,101.7c7.5,16,16,31.5,25.5,46.3c7.9,12.4,16.4,24.3,26.6,34.9
	c0.7,0.7,1.1,1.6,1.6,2.4c0.1,0.2,0.1,0.7,0,1c-0.1,0.2-0.5,0.5-0.7,0.5c-1.6,0-3.3,0.2-4.9-0.1c-7-1.3-13.3-4.3-19-8.4
	c-7.1-5.1-13.1-11.3-18.7-18c-6-7.2-11.3-14.8-16.2-22.8c-8.4-13.6-15.8-27.8-22.4-42.3c-19.7-43.1-34.5-87.9-45.2-134.1
	c-2.6-11.4-4.5-22.8-5.8-34.4c-0.8-7.8,0-15.2,2.7-22.6c2.1-5.7,4.7-11,7.8-16.2c4.9-8.3,10.7-16.1,16.8-23.5
	c8.5-10.3,17.7-19.9,27.3-29.2c20.7-20.1,44-36.6,69.9-49.2c7.5-3.6,15.2-6.8,22.7-10.3c1.8-0.8,3.6-1.6,5.4-2.6
	c0.5-0.3,0.9-1,1-1.6c0.2-1,0.1-2,0-3c-0.9-8.3-1.8-16.5-2.6-24.8c-0.9-9.3-1.8-18.5-2.7-27.8c-1.2-12.9-2.4-25.9-3.6-38.8
	c-0.4-4.3-0.9-8.6-1.4-12.9c-0.3-2.4-1.9-3.2-4.3-2.1c-3,1.4-6.1,2.7-9,4.3c-12.6,6.8-25.3,13.4-37.7,20.6
	c-33.7,19.5-66.1,41.1-97.8,63.8c-2.4,1.7-4.8,3.5-7.3,5.2c-2.6,1.8-3.8,1.3-4.6-2.1c-0.6-2.3-1.1-4.5-1.5-6.8
	c-3.6-18.3-5.2-36.9-5.6-55.6c-0.6-24.4,1.4-48.6,5.6-72.6c3.9-22,9.9-43.5,18.3-64.2c6.2-15.2,14.7-29.1,25.2-41.7
	c9-10.8,19.2-20.3,30.4-28.8c20.9-15.8,44-27.3,68.7-36.1c13-4.6,11.1-1.9,11.3-15.8c0.4-30.6,1.9-61.2,5.9-91.6
	c0.2-1.6,0.2-3.3,0.1-5c0-0.5-0.6-1.3-1.1-1.5c-2.1-0.9-4.3-1.7-6.5-2.4c-12.4-3.9-24.6-8.2-36.2-14.1c-9.5-4.9-18.3-10.8-25.9-18.5
	c-2.5-2.6-5.4-4.9-8.3-7.2c-4.7-3.8-10.1-4.9-16-4c-2,0.3-3.9,0.7-5.8,1.4c-4.7,1.8-9.3,3.6-13.8,5.7c-8.1,3.8-16.2,7.8-24.3,11.7
	c-6.9,3.3-13.5,7.3-19.7,11.7c-12.5,8.9-24.1,18.9-35,29.6c-25.3,24.9-46.8,52.8-65.1,83.1c-35,57.7-56.5,120.2-67.7,186.5
	c-3.9,23-6.3,46.2-7.5,69.5c-1.5,30.6-1.1,61.3,1.9,91.8c2.4,23.9,5.8,47.6,10.1,71.1c6.2,33.4,13.8,66.5,22.4,99.3
	c15,57,32.6,113.2,52.1,168.8c46.5,133,100.9,262.8,161.5,389.9c7.6,15.9,15.7,31.6,23.6,47.4c4.6,9.1,11.2,16.5,19.1,22.8
	c5.2,4.1,10.8,7.7,16.7,10.8c11.5,6.1,23.7,10.6,36.3,13.8c6.2,1.6,12.4,2.2,18.7,2.7c3.1,0.3,5.9-0.4,8.5-2.3
	c5.4-4,11.1-7.3,17.1-10.2c9.9-4.8,19.9-9.2,29.8-13.9c3.7-1.8,7.5-2.3,11.6-2c14,0.8,27.9,1.4,41.9,2.1c1.7,0.1,3.3,0.2,5,0.3
	c19,1,37.9,2,56.9,2.9c1.6,0.1,3.3-0.1,4.9-0.2c0.7-0.1,1.1-0.6,1-1.4c-0.1-2.8-1.7-5-3-7.3c-0.4-0.8-1.5-1.4-2.4-1.6
	c-1.6-0.4-3.3-0.6-4.9-0.6c-15-0.8-29.9-1.6-44.9-2.4c-9.3-0.5-18.6-1-27.9-1.4c-11-0.4-22-0.6-32.9-1c-4.4-0.2-8.6,0.7-12.6,2.5
	c-8.2,3.7-16.3,7.5-24.5,11.2c-13.7,6.2-10.6,7.6-18-6.1c-1.1-2-2.1-4.1-3.2-6.2c-12.6-24.6-24.4-49.6-35.9-74.7
	C654.5,1147.5,605.9,1030,561.3,911c-14.5-38.6-28.3-77.5-40.6-116.9c-5.7-18.4-11.2-37-15-55.9c-5.2-25.8-10.4-51.5-15.2-77.4
	c-2.7-14.7-4.9-29.5-7.1-44.4c-1.8-12.5-3.3-25.1-4.5-37.7c-1.3-13.2-2.5-26.5-3.2-39.8c-1.3-24.9-1.4-49.9-0.4-74.9
	c0.8-19.3,2.5-38.5,4.8-57.7c2.3-19.5,5.6-38.9,9.5-58.1c6.6-33,15.7-65.3,28.1-96.7c13.6-34.2,30.6-66.5,52.3-96.2
	c9.6-13.2,20-25.8,31.7-37.2C603.4,116.5,605.3,115.2,607.1,113.7z M1404.7,661.6c-0.1-0.3-0.2-0.5-0.4-0.7
	c-0.1-0.2-0.4-0.2-0.5-0.3c0.4,0.3,0.8,0.6,1.2,0.8c-1.1,2.5-0.9,5.2-0.8,7.9c0.2,11.4-1.2,22.6-2.9,33.8
	c-2.6,16.5-6.7,32.6-11.6,48.5c-17.1,55.2-40.5,107.7-69.6,157.6c-4.9,8.3-10.2,16.4-15.6,24.4c-3.4,4.9-7.2,9.6-11,14.2
	c-5.2,6.3-11.8,10.7-19.2,13.9c-9.3,4-19,6.3-28.9,7.3c-10.9,1.1-21.9,1.8-32.9,0.8c-2-0.2-4-0.3-6-0.2c-0.9,0-1.9,0.5-3,0.9
	c-0.8,3.2-1.7,6.4-2.5,9.6c-5.1,21-10.1,42-15.3,63c-3.3,13.2-6.8,26.4-10.2,39.6c-0.6,2.3-1.1,4.5-1.5,6.8c-0.3,1.4,0.7,2.9,2,2.9
	c2.7,0.1,5.3,0.2,8,0.3c12.3,0.1,24.6-0.7,36.9-1.4c17-0.9,33.8-3,50.5-6.5c10.8-2.2,21.3-5.3,31.4-9.7
	c10.6-4.6,19.7-11.1,26.8-20.3c2.9-3.7,5.8-7.3,8.4-11.2c5.4-8.4,10.8-16.8,15.8-25.4c9.2-15.8,17.3-32.3,25-48.9
	c18.4-39.6,34.1-80.2,48.1-121.5c20.4-59.9,36.8-120.9,49.2-183c3.1-15.7,5.9-31.4,8.2-47.2c2.2-14.5,3.8-29,5-43.6
	c1.6-19.6,2.9-39.2,3.2-58.8c0.5-30.7-0.7-61.2-3.4-91.8c-1.3-14.9-2.9-29.8-5-44.6c-2.5-18.1-5.6-36.2-9.3-54.1
	c-7.6-37.2-17.6-73.8-30.6-109.5c-12.4-33.8-27.3-66.5-46.5-97c-0.7-1.1-1.3-2.3-1.9-3.4c0.5-0.9,1.1-1.1,1.8-0.6
	c6.3,5.4,11.9,11.6,17.4,17.9c17.6,20.2,32.5,42.2,45.4,65.6c20.7,37.5,35.8,77.2,46.3,118.7c5.1,20,9,40.2,12.4,60.6
	c3.1,18.4,5.4,36.9,7.1,55.4c1.9,20.6,2.7,41.2,2.8,61.8c0.1,23.7-0.7,47.3-2.8,70.8c-1.3,15.2-3.1,30.5-5.1,45.6
	c-2.7,19.8-5.8,39.5-9.6,59.1c-3.5,18.6-7.3,37.2-10.9,55.8c-4,20.3-9,40.3-15,60c-10.9,35.7-23.2,70.8-36,105.8
	c-26.8,73.1-55.7,145.4-85.7,217.3c-25.8,61.7-52.3,123.1-80.9,183.6c-8.7,18.3-17.9,36.4-26.9,54.6c-1.2,2.4-2.5,4.7-4.1,6.8
	c-0.4,0.6-1.8,1.1-2.6,0.9c-1.6-0.4-3.1-1.2-4.6-1.9c-9.1-4.2-18.2-8.3-27.2-12.6c-5.9-2.8-11.9-3.7-18.4-3.7
	c-23.3,0.3-46.6,2.1-69.9,3c-10,0.4-19.9,1-29.9,1.6c-2.6,0.2-5.3,0.5-7.9,0.9c-0.6,0.1-1.3,0.5-1.7,1c-2.1,2.6-3.7,5.4-3.8,8.8
	c2.4,1.3,4.8,0.8,7,0.7c9-0.4,17.9-1.1,26.9-1.5c20.3-0.9,40.6-1.8,60.9-2.7c5.7-0.3,11.3-0.7,16.9-1.1c2.7-0.2,5.2,0.3,7.8,1.4
	c16.8,7.2,33.7,14.4,48.8,24.8c2.6,1.8,5.4,2.6,8.5,2.3c6.3-0.5,12.6-1.2,18.7-2.7c16.3-4.1,31.6-10.2,45.7-19.4
	c12-7.8,21.6-17.6,27.9-30.6c6.4-13.2,13.2-26.1,19.6-39.3c42-87.3,80.5-176.1,116.1-266.2c28.1-71.2,54.1-143.1,76.7-216.3
	c20.9-67.8,39-136.3,50-206.4c1.8-11.5,3.4-23.1,4.7-34.6c1.3-11.9,2.1-23.9,3-35.8c2.1-29.3,1-58.6-1.3-87.8
	c-1.7-21.9-4.9-43.6-9.1-65.2c-6.6-33.4-16-66-28.6-97.5c-18.7-46.7-43.7-89.7-76.1-128.3c-15.5-18.4-32.3-35.4-51.3-50.2
	c-7.4-5.7-14.9-11.3-23.2-15.5c-11.6-5.8-23.3-11.5-35-17c-3.3-1.6-6.8-2.9-10.3-3.9c-7.4-2.1-14.5-1.4-20.7,3.7
	c-2.3,1.9-4.7,3.8-6.7,5.9c-9.1,9.5-20.1,16.3-31.9,21.9c-10,4.7-20.3,8.3-30.8,11.5c-1.9,0.6-3.8,1.2-5.7,1.9
	c-1.3,0.5-2.2,1.7-2.1,3c0.3,4,0.6,8,1.1,11.9c1.6,12.9,2.8,25.8,3.3,38.8c0.7,17.6,1.3,35.3,1.9,52.9c0.1,3.2,0.8,4.3,3.6,5.3
	c2.5,0.9,5.1,1.6,7.6,2.5c22.4,8,43.6,18.2,63,32c13.4,9.5,25.5,20.4,36,33c13,15.5,22.4,33,29.2,52c14.9,41.6,20.8,84.5,19.8,128.5
	c-0.1,6.3-0.7,12.6-1,18.9c-0.5,9.3-1.8,18.5-3.3,27.7c-0.9,5.6-1.6,11.2-3.6,16.4c-1.5,0.6-2.7,0.1-3.8-0.7
	c-9-6.3-17.9-12.8-26.9-19c-31-21.4-62.6-41.8-95.6-59.8c-9-5-18.3-9.5-27.5-14.2c-1.2-0.6-2.5-0.9-3.7-1.3
	c-0.7-0.2-2.1,0.7-2.2,1.5c-0.3,2-0.7,3.9-0.9,5.9c-1.6,17.9-3.1,35.8-4.7,53.7c-0.8,8.9-2,17.9-3,26.8c-0.7,6.6-1.5,13.2-2.2,19.9
	c-0.3,2.4,0.4,3.5,2.9,4.6c2.7,1.2,5.5,2.4,8.3,3.5c13.5,5.7,26.6,12.2,39.2,19.8c34.6,21,63.2,48.6,87.1,81.2
	c4.3,5.9,8,12.3,11.2,18.9c4.2,8.9,6.1,18.2,5.4,28.1c-0.9,11.3-2.8,22.5-5.3,33.5c-10.1,44.9-24.5,88.5-43.1,130.6
	c-7,15.8-14.8,31.3-23.8,46.1c-5.6,9.1-11.6,17.9-18.5,26c-5.2,6.1-10.8,11.7-17.4,16.5c-5.7,4.1-12,7.1-19,8.4
	c-1.6,0.3-3.3,0.1-4.9,0.1c-0.7,0-1.1-0.7-0.8-1.4c0.4-0.9,0.9-1.8,1.6-2.5c11.4-12.2,21-25.8,29.7-40c8.6-13.9,16.2-28.3,23.2-43.1
	c11.9-25.3,22.4-51.2,32.3-77.3c5.3-14,10.1-28.2,14.2-42.6c4.1-14.4,7.1-29.1,8.6-44c1.4-13.7,0.5-27.3-3.2-40.6
	C1406.2,663.7,1405.8,662.4,1404.7,661.6z M1279.3,262.8c0-2.7,0-5.3,0-8c0.4-44,0.3-87.9-4.5-131.7c-1.3-11.6-3-23.1-5.9-34.4
	c-2.8-10.6-8-19.6-15.6-27.4c-4.7-4.8-9.9-8.9-15.5-12.6c-7.8-5.1-16.2-9.2-24.9-12.6c-22.8-8.9-46.6-13.6-70.9-15.9
	c-4.6-0.4-9.3-0.3-14-0.4c-3.5-0.1-6.6,0.9-9.4,2.9c-2.7,1.9-5.4,4-7.7,6.3c-3.7,3.8-7.1,8-10.7,11.9c-4.9,5.4-9.8,10.9-15,16.1
	c-6.8,6.7-14.9,11-24.2,13.2c-7.8,1.9-15.6,3.2-23.6,3.9c-15.6,1.5-31.3,1.6-46.9,1.4c-13.7-0.2-27.3-1.1-40.7-3.5
	c-11.7-2.1-22.5-6-31.3-14.4c-3.4-3.2-6.6-6.5-9.8-10c-3.8-4.2-7.3-8.6-11.1-12.8c-2.7-3-5.4-5.9-8.3-8.6
	c-4.8-4.4-10.4-6.8-17.2-6.4c-8,0.5-15.9,1-23.9,2c-16.2,2.1-32.1,5.6-47.6,10.7c-10.8,3.5-21.2,8-30.9,13.8
	c-8.1,4.8-15.5,10.4-21.7,17.5c-6.1,6.8-10.6,14.5-12.9,23.4c-1.4,5.5-2.7,11-3.7,16.5c-3.2,18.1-4.8,36.3-5.7,54.6
	c-1.3,26.6-2.4,53.2-1.9,79.9c0.4,22.6,0.8,45.3,1.6,67.9c0.6,18.6,1.6,37.3,2.5,55.9c0,1,0.1,2,0.2,3c1.1,15.9,2.2,31.9,3.3,47.8
	c0.8,11,1.6,21.9,2.6,32.9c1.6,17.2,3.3,34.5,5.1,51.7c1.5,15.2,3,30.5,4.8,45.7c2.2,18.5,4.6,37,7.1,55.5
	c2.8,21.1,5.6,42.2,8.8,63.3c4.4,28.3,9,56.5,13.9,84.7c6.1,34.7,12.9,69.3,20.1,103.9c9.2,44.3,18.9,88.5,29.2,132.6
	c14,59.3,29.1,118.2,46.4,176.6c12,40.5,24.9,80.8,39.8,120.3c8.9,23.7,18.3,47.1,29.8,69.7c3.8,7.4,7.9,14.7,12.1,21.8
	c8.2,14,20.1,23.8,35.2,29.7c16.5,6.4,14.5,6.5,31.3-0.1c14.7-5.7,26.5-15.2,34.6-28.9c3.7-6.3,7.4-12.6,10.8-19.1
	c7.5-14.5,14-29.4,20.2-44.5c15-36.7,27.9-74.1,39.7-111.9c25.8-82.3,47-165.8,66-249.9c7.4-32.8,14.4-65.6,21.3-98.5
	c4.6-21.8,8.8-43.7,12.9-65.6c3.6-19.3,7.1-38.6,10.4-58c3.2-18.4,6.3-36.7,9.1-55.2c3.1-20.4,5.9-40.8,8.7-61.3
	c2.5-18.1,5-36.3,7.1-54.4c2.5-21.2,4.6-42.4,6.8-63.5c0.8-7.9,1.6-15.9,2.3-23.8c1-10.9,2.1-21.9,3-32.8c1-12.9,1.9-25.9,2.8-38.9
	c1-15.3,2.3-30.5,3-45.8C1277.5,320,1279.3,291.4,1279.3,262.8z M1525.6,1286.8c-2.1-0.1-4-0.3-6-0.4c-14.3-0.3-28.6-0.5-42.9-0.8
	c-25.3-0.5-50.6-1.1-75.9-1.7c-4-0.1-6.2,1.6-7.5,5.1c-0.5,1.2-0.9,2.5-1.2,3.8c-0.1,0.5,0.4,1.4,0.8,1.5c1.3,0.4,2.6,0.6,3.9,0.6
	c8.7,0.2,17.3,0.2,26,0.5c28,0.9,55.9,1.4,83.9,1.4c1.3,0,2.7,0,4,0c4.3,0.1,7.8,1.8,10.5,5c1.7,2,3.2,4.3,4.3,6.7
	c1.4,3,2.2,6.3,3.3,9.4c1.5,4.4,2.9,8.9,4.5,13.2c1.3,3.4,3.8,5.4,7.6,5.5c1.3,0,2.7,0.1,4,0.1c24,0.6,47.9-0.8,71.8-2.7
	c15.6-1.2,31.2-2.8,46.6-5.2c11.2-1.7,22.3-3.8,33.3-6.5c4.5-1.1,9-2.6,13.3-4.2c6.3-2.3,12-5.7,16.4-11c5.8-6.9,12-13.4,17.7-20.3
	c24.3-29.3,45.4-60.8,64.5-93.7c32.1-55.2,57.4-113.3,77.5-173.8c13.9-41.7,24.9-84.2,33.6-127.3c3.4-17,6.5-34,9-51.1
	c1.6-11.2,3-22.4,4.1-33.7c1.6-15.6,2.8-31.2,3.1-46.8c0.5-23,0.7-45.9-1.4-68.9c-1-11.3-1.6-22.6-2.9-33.8
	c-2.7-22.5-6.3-44.8-11.1-66.9c-10.5-48.7-25.8-95.7-46.2-141.1c-14.1-31.3-30.5-61.4-50-89.7c-9.1-13.2-18.8-25.9-29.5-37.7
	c-9-9.9-18.8-18.9-29.6-26.7c-5.4-3.9-11.1-7.4-17.1-10.2c-11.8-5.6-24.1-7.2-36.9-4.4c-6.2,1.4-12.3,2.7-18.6,3.8
	c-8.9,1.6-17.9,1.8-26.7-0.7c-6.1-1.7-12.2-3.4-18.1-5.5c-11.9-4.2-23.5-9.3-35-14.6c-3-1.4-6-2.6-9.1-3.9c-0.4,0.8-0.9,1.4-0.9,2
	c0.1,1,0.4,2,0.7,2.9c9.4,23.5,17.4,47.5,23.4,72.1c0.2,0.6,0.4,1.3,0.6,1.9c0.6,2.1,2,3.4,4,4.1c2.5,0.9,5,1.7,7.5,2.7
	c9.6,3.7,18.8,8.4,27.5,14.1c20.8,13.9,36,32.4,45.5,55.6c3.9,9.6,6.7,19.5,8.4,29.7c1.9,11.2,3.5,22.4,4.6,33.6
	c1.6,15.9,2.9,31.8,3.4,47.8c0.8,28.3,1.3,56.6,1.2,84.9c0,18,0.5,36,0.7,53.9c0.1,9.7,1.3,19.3,2.4,28.9c0.4,4,1.3,7.9,2.2,11.8
	c2,9,6.3,16.8,12.7,23.4c3.9,4.1,8.2,7.8,12.4,11.6c3.7,3.3,7.6,6.4,11.5,9.6c9.8,8.2,17.8,17.9,24.6,28.7c10,15.9,17.1,33,22.4,51
	c2.2,7.6,2.3,15,0.7,22.7c-1.4,6.5-3.5,12.8-6,19c-3.9,9.6-8.8,18.7-14,27.6c-7.1,12.1-14.9,23.6-23.2,34.9
	c-16.9,23.2-35.3,45.1-54.6,66.3c-15.5,17-31.4,33.6-48.4,49c-4.7,4.3-9.5,8.4-14.4,12.4c-5.4,4.5-11.5,8-18,10.6
	c-5.3,2.1-10.6,4.1-16,5.6c-22,5.9-44.6,7.6-67.3,7c-0.6,0-1.4-0.2-1.9-0.5c-0.4-0.3-0.8-1.4-0.7-1.6c1.6-1.7,3.3-3.3,5-4.8
	c19.3-16.9,38.7-33.7,57.8-50.7c26.9-23.9,53.2-48.4,78.6-73.9c19.3-19.4,37.3-39.9,54-61.5c5.3-6.8,10.3-13.9,15.1-21.1
	c3.7-5.5,6.8-11.4,9.9-17.3c3.9-7.4,6.6-15.3,8.5-23.4c0.3-1.2,0.2-2.6,0.3-4c-2.2,0.3-2.9,1.8-3.7,3.2c-7,12.1-15.2,23.4-23.9,34.4
	c-11.1,14.1-22.9,27.7-35,41c-35.1,38.4-72.3,74.6-110.6,109.7c-17.9,16.4-36.1,32.5-55,47.9c-6.5,5.2-13,10.4-19.8,15.2
	c-12.3,8.6-26.1,13.1-41.2,13.3c-3,0-6-0.1-9-0.1c-1.3,0-2.6,0.3-3.9,0.5c-0.9,2-1.9,3.7-2.6,5.6c-7.8,18.4-15.7,36.7-23.5,55.1
	c-0.8,1.8-1.5,3.7-2.1,5.6c-0.2,0.5,0.2,1.2,0.4,2.2c3.1,0.8,6.3,1.7,9.5,2.3c23.5,4.5,47.1,8.8,71,11c10.3,1,20.6,1.4,30.9,1.4
	c8.4,0,16.5-1.3,24.6-3.5c14.2-3.9,27.7-9.4,41.1-15.3c22.9-10,45.1-21.3,67.2-33c2.3-1.2,4.7-2.4,7.1-3.5c0.2-0.1,0.6,0.2,0.8,0.4
	c0.2,0.2,0.3,0.6,0.2,0.8c-1.4,1.9-2.7,3.8-4.2,5.5c-24.7,27.9-49.4,55.9-74.3,83.6c-16,17.8-32.5,35.3-48.7,52.9
	c-10.8,11.8-23.3,21.9-35.5,32.2c-1.3,1.1-2.7,2-4.1,2.9c-2.4,1.5-5.5,1.1-7.3-1c-1.1-1.3-2.1-2.6-3-4
	C1528,1291,1526.9,1288.9,1525.6,1286.8z M1064.7,1629.1c0.2,3.7,0.2,7.3,0.5,11c0.7,9,4.5,16.6,11.3,22.6c4,3.5,8.4,6.5,13.4,8.6
	c9,3.8,18.5,5.5,28.3,4.4c9-1,17.6-3.2,26-6.8c9.5-4.1,18.4-9.3,26.7-15.5c6.7-5,13.3-10,20.2-14.6c18.3-12.2,37.6-22.6,57.3-32.4
	c48.9-24.2,99.1-45.4,150.5-64c23.5-8.5,47.1-16.4,71.3-22.6c4.8-1.2,9.7-2.5,14.6-3c15.3-1.7,30.5-1.5,45.7,1.3
	c29,5.3,55.3,16.8,78.8,34.6c18.1,13.6,32.6,30.4,42.7,50.7c0.9,1.8,1.8,3.6,2.9,5.2c2.1,3,5,4.3,8.7,3.5
	c12.4-2.6,24.7-5.4,36.5-9.9c5-1.9,9.8-4.2,14.5-6.6c6.2-3.2,10-8.5,12-15.3c2.7-9.3,4.5-18.8,4.8-28.5c0.3-7.3-0.5-14.6-2.4-21.8
	c-2.2-8.4-5.6-16.4-9.8-24c-4.3-7.9-9-15.5-13.5-23.3c-5.5-9.5-11.3-18.8-16.5-28.5c-16.1-30.3-26.6-62.3-29.3-96.7
	c-0.1-1.3-0.3-2.6-0.5-4c-0.5-3.9-1.5-4.7-5.1-4.3c-4.3,0.5-8.6,1-12.9,1.5c-4,0.4-7.9,1-11.9,1.3c-4.3,0.4-8.8,0-12.9,1
	c-4.3,1-8.6,0.6-12.8,0.8c-19,0.7-37.9,1.2-56.9,1.7c-3,0.1-6-0.1-9-0.4c-8.2-0.7-14.4-4.7-19.1-11.3c-1.3-1.9-2.4-4-3.6-6
	c-1.4-2.3-2.3-2.7-4.9-2.3c-11.2,2.1-21.9,5.8-31.9,11.1c-6.5,3.4-12.8,7.1-19.2,10.7c-28.1,15.9-56.6,31-86,44.3
	c-24.9,11.2-50.3,20.9-76.9,27.6c-16.5,4.1-33.1,6.9-50.2,7.8c-18.9,1-37.9,1.1-56.8,3.1c-10.3,1.1-20.5,2.5-30.6,4.6
	c-9.8,2.1-19.3,5.1-28.2,9.9c-10,5.4-17.4,13.1-21.8,23.8c-8.4,20.3-16.7,40.6-23.9,61.4c-5.9,17-11.2,34.1-15.1,51.7
	C1067.1,1603.9,1064.8,1616.4,1064.7,1629.1z M941.1,1629.2c-0.3-3.7-0.4-7.3-0.8-10.9c-1.4-11.6-3.5-23-6.4-34.3
	c-9.3-36.9-23.1-72.2-38-107.1c-3.4-7.9-8.8-14-15.8-18.8c-4.4-3-9.2-5.4-14.1-7.3c-6.8-2.7-13.9-4.6-21-6.1
	c-17.3-3.6-34.9-5.2-52.5-6c-14.3-0.6-28.6-1.3-42.9-2c-2-0.1-4-0.3-6-0.5c-18.8-2.6-37.2-6.9-55.4-12.7c-25.1-8-49.3-18.2-73-29.6
	c-25.8-12.4-50.9-26-75.8-40.2c-4.6-2.6-9.3-5.2-14-7.7c-10.4-5.4-21.5-8.8-33-10.8c-1.4-0.2-2.6,0.2-3.4,1.5
	c-1.6,2.6-2.9,5.3-4.6,7.7c-4.5,6.3-10.4,10.2-18.2,10.9c-3.6,0.3-7.3,0.4-11,0.4c-4.7,0-9.3-0.1-14-0.2c-4.7-0.1-9.3-0.3-14-0.4
	c-5-0.1-10-0.2-15-0.4c-4.7-0.2-9.4-0.9-14-0.5c-4.8,0.4-9.2-1.2-13.8-1.4c-6-0.2-11.9-1-17.9-1.5c-5.6-0.5-11.3-1.1-16.9-1.6
	c-1.6-0.1-3.2,1.2-3.4,3c-0.8,6.9-1.5,13.9-2.5,20.8c-2.4,17.2-7,33.8-13.3,50c-6,15.6-13.4,30.4-21.8,44.8c-5.9,10-12,20-17.9,30
	c-3.7,6.3-7.2,12.8-9.9,19.6c-2.4,5.9-4.3,11.8-5.5,18.1c-3,15.9-0.2,31.1,4.3,46.2c1.7,5.6,5.2,10,10.4,12.9
	c2.9,1.6,5.8,3.3,8.8,4.6c14.1,6.1,29,9.6,44,12.6c2.9,0.6,5.3-0.6,7-2.8c1.4-1.8,2.6-3.9,3.6-5.9c8.3-16.6,19.5-31,33.5-43.1
	c31-26.7,66.9-41.8,107.8-44.4c14-0.9,27.9,0.2,41.5,4.1c10.9,3.1,21.8,6,32.6,9.4c34.9,11.1,69.1,24.1,102.8,38.1
	c31.6,13.2,62.9,27.1,93.4,42.7c16.9,8.6,33.5,17.7,49.3,28.3c7.4,5,14.6,10.5,21.8,15.8c11.4,8.2,23.6,14.9,37.3,18.6
	c10.7,2.9,21.5,4,32.5,1.4c11.4-2.8,20.9-8.4,28.2-17.7c2.3-2.9,3.8-6.2,4.7-9.8C940.7,1641.1,941.1,1635.2,941.1,1629.2z
	 M1944.7,615.2c1.2,8.3,2.3,14.8,3.2,21.4c1.9,14.2,3.6,28.4,4.8,42.6c1.9,23.6,2.9,47.2,2.6,70.8c-0.1,9.6-0.6,19.3-1.1,28.9
	c-0.7,11.6-1.4,23.3-2.7,34.8c-1.8,16.9-4.2,33.7-7.1,50.4c-5.2,30.2-11.6,60.1-19.2,89.7c-10.7,41.9-23.9,83.1-39.7,123.4
	c-0.6,1.5-1.1,3.1-1.5,4.7c-0.1,0.5,0.4,1.1,0.7,1.6c0.1,0.1,0.7,0.1,0.9-0.1c1.8-1.4,3.7-2.9,5.4-4.4c13-12,25.9-24,38.8-36
	c1.9-1.8,3.8-3.7,5.8-5.5c0.7-0.7,1.6-1.2,2.4-1.8c0.3-0.2,0.9-0.3,0.9-0.2c0.3,0.5,0.8,1.1,0.7,1.5c-3.2,12.6-7.6,24.8-12.2,36.9
	c-21.9,56.9-48.6,111.6-79.4,164.2c-3.7,6.3-7.6,12.5-11.8,18.5c-8,11.6-8.6,13.3-25.4,19.5c-2.8,1-5.7,1.7-8.6,2.6
	c-9,2.6-18.1,4.6-27.3,6c-3.5,0.5-6.3,1.8-8.4,4.8c-1.7,2.5-3.6,4.8-5.3,7.2c-0.1,0.2,0,0.6,0,0.9c0,0.8,0.4,1.2,1.3,1.2
	c4-0.3,7.9-0.6,11.9-1.1c6.9-0.9,13.7-2.6,20.5-3.8c7.5-1.3,14.8-3.7,22.2-5.8c8.2-2.4,15.1-6.9,20.4-13.7c3.7-4.7,7.5-9.4,11-14.2
	c9.6-13.2,18.1-27.1,26.2-41.3c30.9-54.3,55-111.5,73.4-171.1c9.4-30.5,17.1-61.5,22.7-93c3.4-19,6.2-38.1,7.9-57.3
	c1.9-20.9,3.4-41.8,3.1-62.8c-0.1-11-0.8-21.9-1.2-32.9c-0.9-21.6-3.1-43.1-5.9-64.6c-3.3-25.4-8.1-50.6-14.4-75.4
	c-3.5-13.9-7.5-27.6-12.2-41.1C1947.4,619.4,1946.4,618.1,1944.7,615.2z M57.7,619.5c-2.7,1.3-2.9,3.8-3.6,5.8
	c-6.4,19.3-11.7,38.9-15.9,58.7c-4.6,21.5-8,43.2-10.7,65c-2.4,20.2-4,40.4-5,60.7c-1.7,34.7-0.2,69.2,4,103.7
	c2.8,23.5,6.8,46.8,11.9,69.8c17.8,79.1,45.9,154.2,84.7,225.4c8.3,15.2,17.1,30.1,26.9,44.4c4.9,7.1,10.3,13.9,15.5,20.8
	c5.6,7.5,13.1,12.1,22,14.8c1.9,0.6,3.8,1.3,5.7,1.8c9.6,2.6,19.4,4.7,29.3,6.3c6.2,1,12.4,2.4,18.8,2.4c0.5,0,1-0.6,1.5-1
	c0.2-0.2,0.2-0.7,0.1-0.9c-2.4-3.2-4.7-6.4-7.4-9.4c-1-1.2-2.7-1.8-4.2-2.4c-1.2-0.5-2.6-0.4-3.9-0.7c-11.1-2.1-22.2-4.4-32.9-8
	c-3.8-1.3-7.5-2.7-11.1-4.3c-4.3-1.9-8-4.8-10.8-8.6c-2.3-3.2-4.8-6.4-6.9-9.8c-4.5-7-9-14-13.1-21.2c-18.6-32-35.3-64.9-50.7-98.5
	c-10.4-22.7-20.2-45.6-28.7-69.1c-3-8.5-5.7-17-8.5-25.6c-0.4-1.3-0.5-2.6,0.4-3.9c0.8,0.4,1.8,0.8,2.5,1.4c2.2,2,4.3,4.2,6.5,6.2
	c13.2,12.2,26.4,24.4,39.6,36.6c1.7,1.6,3.6,2.8,5.8,4.5c0.1-1.5,0.5-2.5,0.2-3.4c-0.8-2.5-1.9-5-2.9-7.4
	c-17.4-45.1-31.6-91.1-42.8-138.1c-6.8-28.5-12.5-57.2-17.1-86.1c-1.9-11.5-3.2-23.1-4.5-34.7c-1.3-12.2-2.1-24.5-2.9-36.8
	c-2.2-32.3-1-64.6,1.2-96.8c0.5-7.3,1.2-14.6,2.2-21.9c1.5-11.9,3.4-23.7,5-35.6C57.8,622.3,57.7,621,57.7,619.5z M1074.1,1373
	c-1,1.6-2,2.9-2.8,4.3c-7.8,13.8-18,25.5-31.7,33.8c-1.9,1.1-2.6,2.9-2.2,5.1c3.2,16.6,5.5,33.4,7.9,50.2c1,6.6,2.4,13.1,3.9,19.5
	c1,4.2,2.5,8.3,4.9,11.9c1.1,1.7,2.4,3.2,4.4,4c0.5,0.2,1.5,0.1,1.7-0.3c0.9-1.4,1.8-2.8,2.4-4.3c4.2-10.1,8.4-20.3,12.6-30.4
	c5.6-13.2,14.5-23.7,26.3-31.8c4.1-2.8,8.4-5.3,12.9-7.6c6.9-3.5,13-8,18.3-13.6c2.8-2.9,5.5-5.8,8-8.9
	c8.9-10.8,17.7-21.6,26.5-32.4c0.4-0.5,0.7-1.1,1.1-1.7c0.5-0.7-0.1-2.4-0.8-2.4c-1.3-0.1-2.6-0.4-3.9-0.3c-23.6,1-47.1,2-70.7,3.1
	c-4.6,0.2-9.3,0.6-13.9,1C1077.3,1372.4,1075.7,1372.7,1074.1,1373z M882.5,1370c-13.1-0.6-26.4-1.1-39.6-1.7
	c-1.6-0.1-3.3,0.1-4.9,0.3c-0.4,0.1-0.9,0.9-0.9,1.5c0,0.6,0.4,1.2,0.8,1.7c9,11.1,18,22.2,27.1,33.2c2.5,3.1,5.3,6,8,8.9
	c5.3,5.6,11.3,10.3,18.3,13.6c2.4,1.1,4.7,2.5,7,3.8c15,8.9,26.4,21,32.9,37.4c3.8,9.6,7.9,19,11.8,28.5c0.6,1.5,1.5,2.9,2.4,4.3
	c0.2,0.3,1.3,0.5,1.7,0.2c1.3-0.9,2.7-1.9,3.7-3.2c2.1-2.6,3.4-5.7,4.4-8.9c1.8-5.4,3-10.9,3.8-16.5c2-12.8,3.9-25.6,5.9-38.4
	c0.9-5.9,1.9-11.8,2.9-17.7c0.4-2.2-0.3-3.9-2.3-5c-1.2-0.6-2.3-1.4-3.4-2.1c-10.5-6.8-19.1-15.4-25.8-26c-1.8-2.8-3.6-5.6-5.3-8.5
	c-1.3-2.3-3.2-3.2-5.7-3.3C911.2,1371.6,896.9,1370.8,882.5,1370z M1093.6,2396.8c-0.2,5.3-0.6,13.3-1,21.3c-0.1,1.3-0.3,2.6-0.3,4
	c-0.1,1,1.3,2.7,2.3,3c4.5,1.3,9,2.3,13.7,2.4c15.2,0.2,29.7-2.9,43.6-8.8c1.5-0.6,2.9-1.5,4.4-2.2c3.2-1.6,4.9-4.4,5.8-7.7
	c0.3-1.3,0.5-2.6,0.7-3.9c0.9-7.9,1.7-15.9,1.5-23.9c-0.4-13.3-1.3-26.5-3.7-39.6c-1.1-5.9-2.5-11.7-4.7-17.3
	c-2.1-5.3-5.1-10.1-9.5-13.8c-4.3-3.7-10.1-3.7-14.6-0.1c-2.9,2.3-5.1,5.2-7,8.3c-7.1,11.6-15.1,22.7-23.1,33.7
	c-2.1,3-4.2,6-6.5,8.8c-1.9,2.5-2.7,5.1-2.6,8.3C1093.1,2377.5,1093.3,2385.8,1093.6,2396.8z M912.8,2364.8c-0.4-0.6-0.6-1.2-1-1.8
	c-11-15.4-22.3-30.6-32.3-46.7c-1.4-2.2-3.3-4.2-5.3-5.9c-4.8-4.2-10.6-4-15.3,0.1c-4.1,3.6-6.9,8-9,13c-2.1,5.2-3.6,10.7-4.6,16.3
	c-3.1,17-4.6,34.2-3.8,51.6c0.3,5.6,1.1,11.2,1.9,16.8c0.5,3.9,2.8,6.7,6.3,8.5c2.4,1.2,4.7,2.4,7.2,3.3c5.3,1.8,10.7,3.7,16.2,4.9
	c8.1,1.8,16.3,3,24.7,2.6c4.7-0.2,9.2-1,13.6-2.7c0.7-0.3,1.4-1.4,1.6-2.3c0.3-0.9,0.2-2,0.1-2.9c-1.7-14.6-1.3-29.2-0.4-43.8
	C913,2372.1,912.8,2368.4,912.8,2364.8z M1760.3,1555c-0.1,0-0.2,0-0.3,0c0-2.7,0-5.3,0-8c0-1.3-0.1-2.7-0.3-4
	c-2.2-20.1-7.9-39-18.4-56.4c-4-6.5-7.9-13.1-11.9-19.6c-8-13-15.6-26.3-22.1-40.1c-6.8-14.5-11.9-29.5-15.3-45.2
	c-2.3-10.4-3.7-20.9-4.2-31.6c-0.2-5.1-1.5-5.9-6.1-5.1c-2.6,0.5-5.2,1.2-7.8,1.5c-8.2,0.9-8,2.2-7,9.6c0,0.3,0.1,0.7,0.1,1
	c5,30.8,14.6,60,29.3,87.5c5.5,10.3,11.3,20.3,17.4,30.2c4.7,7.6,9.4,15.3,13.8,23.1c3.8,6.6,7,13.6,9.6,20.8
	c5.2,14.4,6.7,29.1,3.8,44.1c-0.8,4.2-1.8,8.4-2.6,12.7c-0.3,1.3-0.3,2.6-0.4,3.9c-0.1,1.1,1.5,2.7,2.6,2.6
	c4.4-0.4,8.4-1.9,12.2-3.9c4.5-2.4,6.9-6.2,7.3-11.1C1760.1,1563,1760.1,1559,1760.3,1555z M245.5,1554.9c0.2,4,0.2,8.6,0.6,13.3
	c0.2,2.7,1.3,5.2,3.4,7.1c4.6,4.2,10.1,6.1,16.2,6.6c0.7,0.1,2-1.1,2.1-1.9c0-1.3,0.2-2.7-0.1-3.9c-0.6-3.3-1.4-6.5-2.1-9.7
	c-4.1-18.8-2-37,5.9-54.6c3.4-7.6,7.3-15,11.6-22.1c4-6.5,8-13,12-19.6c6.1-9.9,11.7-20.1,17-30.5c11.9-23.2,20.3-47.7,25.1-73.3
	c0.9-4.9,1.6-9.8,2.3-14.8c0.3-1.8-0.8-3.3-2.6-3.7c-5.2-1-10.5-1.9-15.7-2.8c-0.3-0.1-0.7,0-1,0.1c-0.5,0.3-1.3,0.6-1.5,1.1
	c-0.4,1.9-0.8,3.9-0.9,5.8c-0.4,12-2.7,23.7-5.5,35.4c-4.2,17.6-10.9,34.2-19.3,50.1c-6.3,12.1-13.4,23.8-20.5,35.4
	c-4,6.5-7.9,13.1-11.6,19.8C250.6,1512.1,245.9,1532.6,245.5,1554.9z M223.3,1507.1c-1.1-5.1-2.4-10.2-3.5-15.4
	c-3.7-17.3-6.6-34.6-8.6-52.2c-1.6-14.2-3.1-28.4-3.5-42.8c-0.8-24.3-0.5-48.6,1.8-72.8c0.9-9.4,1.9-10.1-8.4-11.8
	c-3.3-0.5-6.5-1.5-9.7-2.1c-1.2-0.2-2.7,1-2.9,2.2c-0.2,1-0.4,2-0.5,3c-1.6,15.9-2.6,31.8-2.7,47.8c-0.2,27,1.4,53.9,5.8,80.6
	c0.5,2.9,0.5,6,1.2,8.9c4,17.5,8,35,12.1,52.5c2.7,11.3,5.5,22.6,8.5,33.9c0.5,1.8,0.3,4,2.3,5.3c1.9-2.6,1.9-5.6,2.1-8.5
	c0.7-7,2.1-13.8,4-20.6C222,1512.4,222.6,1509.8,223.3,1507.1z M1791.3,1543.2c1.2-3.5,2.2-7,3-10.5c6.3-26.8,12.7-53.7,19.1-80.5
	c0.3-1.3,0.5-2.6,0.6-3.9c1-7.6,2-15.2,2.9-22.7c1.5-12.5,2.8-25.1,3.1-37.8c0.2-11.3,0.1-22.6,0.2-33.9c0-12.7-1.6-25.2-2.5-37.8
	c-0.1-2-0.8-3.9-1.4-5.8c-0.1-0.5-1-0.8-1.6-1c-0.3-0.1-0.7,0-1,0.1c-5.2,1.2-10.3,2.5-15.5,3.7c-1.3,0.3-2.4,1.6-2.4,2.8
	c0,1.7,0,3.3,0.1,5c0.7,13.3,2.1,26.5,2.4,39.8c0.6,28.7-0.9,57.2-4.6,85.6c-2.4,18.8-5.8,37.4-10.3,55.9c-0.8,3.3-0.9,6.3,0.1,9.7
	c2.6,8.9,4.6,18,5.2,27.4c0.1,1,0.3,2,0.7,2.9C1789.7,1542.5,1790.5,1542.7,1791.3,1543.2z M772.2,2359.3c-0.7,11.6,0,20.9,1.1,30.1
	c0,0.3,0.1,0.7,0.2,1c0.6,3.9,2.5,6.8,6,8.6c0.6,0.3,1.2,0.6,1.8,0.9c13.2,6.1,27.1,8.8,41.7,8.2c1,0,2-0.3,2.9-0.7
	c0.5-0.2,1.2-0.9,1.2-1.4c0.1-2,0.1-4-0.1-6c-1.7-14.3-0.6-28.6,0.5-42.9c0.2-2.6,0.6-5.3,1.1-7.9c0.8-3.5-0.3-6.4-2.3-9.3
	c-6.9-9.8-13.5-19.8-20.3-29.7c-1.3-1.9-2.8-3.7-4.3-5.4c-4.6-5.1-11.1-4.1-15-0.2c-3.3,3.4-5.9,7.3-7.3,11.8
	c-1.5,4.7-2.9,9.6-3.9,14.4C773.1,2340.9,772.8,2351.3,772.2,2359.3z M1178.8,2406.5c1.2,1.7,3.3,1.7,5.2,1.7
	c12.5,0.3,24.5-1.8,36.1-6.5c10.5-4.2,11.8-6.1,12.8-17.7c1.1-13.3,0.6-26.6-0.6-39.9c-0.7-6.9-1.7-13.9-3.7-20.6
	c-1-3.5-2.3-7-3.6-10.3c-1.5-3.7-4-6.9-7-9.6c-3.7-3.2-9.1-3.3-12.7,0c-1.9,1.8-3.7,3.8-5.2,6c-7.2,10.4-14.2,20.9-21.4,31.3
	c-1.4,2-2,4.1-1.7,6.5c0.6,4.9,1.4,9.9,1.7,14.9c0.9,12.3,1,24.6,0.2,36.9C1178.7,2401.6,1178.8,2404,1178.8,2406.5z M724.8,1393.1
	c2.2,1.5,3.2,2.5,4.4,3c2.5,1,5,1.8,7.5,2.5c17,5.1,34.4,7.1,52,7.7c3.3,0.1,6.6,0.1,10-0.1c7.3-0.5,14.5-1.2,21.6-3.5
	c3.8-1.3,7.4-2.9,10.3-5.9c1.9-2,3.1-4.4,3-7.1c-0.1-2-0.1-4.1-0.9-5.8c-2.9-6-6.3-11.6-11.1-16.3c-4.9-1.4-9.9-0.8-14.8-0.9
	c-1.6,0-3.2,0.6-4.8,1c-0.3,0.1-0.6,0.3-0.9,0.4c-10.7,4.5-21.2,9.4-31.4,15c-3.2,1.7-6.4,3.6-9.2,5.9c-4.8,4.1-10.4,5.7-16.5,5.7
	C737.8,1394.7,731.9,1394.5,724.8,1393.1z M1280.4,1393.3c-1.7-0.7-3.3-0.2-4.9,0.2c-5.9,1.3-11.9,1.3-17.8,1.1
	c-5.1-0.2-9.7-1.7-13.7-5c-2.3-1.9-4.8-3.5-7.4-5c-11.2-6.5-23-11.8-34.9-16.9c-1.5-0.6-3.2-1-4.8-1c-4.3,0-8.6-0.2-12.8,0.7
	c-3,2.9-4.9,6.4-7.2,9.7c-0.9,1.4-1.9,2.8-2.6,4.2c-0.7,1.5-1.4,3-1.8,4.6c-1.3,5,0.2,9.2,4.2,12.4c4.5,3.7,10,5.2,15.6,6.2
	c7.2,1.2,14.4,2,21.8,2c14.3-0.1,28.5-1.8,42.5-4.6c6.8-1.4,13.4-3.7,20.1-5.8C1278,1395.6,1279.7,1395,1280.4,1393.3z
	 M1050.3,1525.8c0.7-0.6,1.6-1.1,2-1.9c0.9-1.8,1.5-3.7,2.2-5.6c0.8-2,0.6-3.9-1.1-5.4c-6-5.6-9.4-12.8-11.8-20.5
	c-1.3-4.1-2.2-8.4-2.8-12.6c-2.1-15.8-4.1-31.6-6.1-47.4c-0.6-4.6-1.4-9.2-2.1-13.8c-0.1-0.9-1.4-1.7-2.2-1.4
	c-3.7,1.4-7.4,2.8-11.1,4.4c-0.7,0.3-1.1,1.6-1.4,2.5c-0.2,0.6,0,1.3,0.1,2c1.9,17.5,4.5,34.9,7.4,52.2c1.5,8.5,3.6,16.9,5.5,25.3
	c1.6,7.1,5.7,12.6,11.6,16.8C1043.6,1522.5,1046.6,1524.7,1050.3,1525.8z M975.7,1418.4c-1.9,3.6-2,7.3-2.5,10.8
	c-2.1,16.8-4.1,33.6-6.4,50.4c-0.6,4.3-1.6,8.5-2.9,12.6c-2.3,7.7-5.7,14.9-11.7,20.5c-1.3,1.2-1.9,2.7-1.4,4.5
	c3.4,10.1,2.8,10.5,12.4,4.3c1.4-0.9,2.7-2,4-3c4.2-3.5,7.2-7.8,8.7-13.1c1.1-4.2,2.3-8.3,3.2-12.5c3.3-14.9,5.4-30.1,7.6-45.2
	c1-6.9,1.7-13.8,2.5-20.8c0.1-1.3-0.2-2.6-0.3-3.9C984.7,1420.8,980.5,1418.9,975.7,1418.4z M1368.8,2332.7c0,5,0,10,0,15
	c0,1.1,1.5,2.4,2.6,2.4c7.1-0.1,13.7-2.4,20-5.6c1.9-0.9,3.2-2.4,3.6-4.5c0.5-2.9,1.1-5.9,1.3-8.8c0.7-12-0.1-23.9-2-35.8
	c-0.5-3.3-1.4-6.5-2.4-9.7c-1-3.2-2.5-6.1-4.9-8.6c-1.5-1.5-3.9-1.8-5.3-0.4c-0.9,0.9-2,1.8-2.7,2.9c-4,6.1-7.9,12.3-11.7,18.6
	c-0.6,1.1-0.9,2.5-0.9,3.8c0,2.3,0.3,4.7,0.7,6.9C1368.7,2316.7,1368.7,2324.7,1368.8,2332.7z M1737.9,1326.2
	c-0.9-0.2-1.7-0.8-2.1-0.5c-4.5,2.6-9,5.3-13.5,8c-1.1,0.6-1.4,2.1-0.9,3.5c2.8,6.7,6.3,13,10.8,18.8c0.4,0.5,0.9,0.9,1.4,1.3
	c0.2,0.2,0.7,0.4,0.8,0.4c0.5-0.2,1.4-0.6,1.4-1c0.7-7.9,1.4-15.7,1.9-23.6C1738,1330.7,1737.9,1328.4,1737.9,1326.2z M268.1,1339.8
	c0-0.6,0,1,0.1,2.7c0.4,4.6,0.9,9.2,1.5,13.7c0.1,0.5,0.7,1.1,1.1,1.2c0.5,0.1,1.4-0.1,1.7-0.5c4.8-5.5,8.3-11.8,11.2-18.5
	c0.8-1.8,0.3-3.3-1.3-4.2c-4-2.2-8-4.5-12.1-6.7c-0.8-0.4-2.2,0.3-2.2,1.1C268.1,1331.6,268.1,1334.6,268.1,1339.8z M1374.3,1327.5
	c0.1,0.8,0.2,1.4,0.3,2c0.6-0.1,1.3,0,1.7-0.3c4.7-4.1,9.3-8.2,13.9-12.4c0.4-0.3,0.3-1.2,0.3-1.8c0-0.2-0.5-0.5-0.7-0.5
	c-8.1-1.4-8.8-0.6-11.6,5.3C1376.9,1322.4,1375.5,1325,1374.3,1327.5z M949.9,1703.8c-1.1,4.2-1.8,8.5-2.9,12.6
	c-11,43.1-29.2,82.6-56.6,117.9c-28,36-46.6,76.6-56.4,121.2c-2.4,11.1-3.6,22.4-3.8,33.7c-0.1,9.7,0.6,19.3,3.1,28.7
	c3.9,14.7,11.6,26.7,24.4,35.4c6.6,4.5,13.5,8.6,20.8,11.8c11.5,4.9,23.3,7.6,35.9,7.1c18.4-0.8,33.4-8.2,44.8-22.6
	c6.8-8.5,11.1-18.1,13.7-28.6c1.6-6.5,2.9-13,4-19.6c2.9-17.7,5.4-35.5,8.3-53.3c1.6-9.8,3.7-19.6,5.8-29.4c1.3-6.2,3.2-12.2,6-18
	c1.3-2.7,2.9-5.2,4.4-7.8c0.4-0.7,2.2-0.7,2.6-0.1c0.9,1.4,2,2.7,2.7,4.1c3.9,7.4,6.2,15.4,8.2,23.5c3.5,14.6,5.7,29.4,7.9,44.2
	c2.5,16.8,5,33.6,8.3,50.2c2,10.2,5.4,19.9,11,28.7c9.2,14.5,22,23.9,38.9,27.3c8.9,1.8,17.9,1.6,26.8-0.1c15.7-3,29.5-10,42.3-19.4
	c8.8-6.5,15.2-14.9,19.2-25c3.1-7.8,4.9-15.9,5.5-24.2c1.3-18.4-0.5-36.6-5.1-54.5c-10.6-42.2-29.1-80.6-55.7-115.1
	c-6.7-8.7-13.1-17.6-18.8-27.1c-18.2-30.2-30.8-62.6-38.6-97c-0.9-3.9-1.8-7.7-2.7-11.4c-0.7-0.1-1-0.3-1.4-0.2
	c-0.7,0-1.3,0.1-1.9,0.3c-16.7,5.5-31.5,14.3-43.3,27.6c-1.1,1.2-2.2,2.5-3.4,3.7c-0.4,0.4-1.2,0.4-1.8,0.6
	c-4.8-4.6-9.4-9.4-14.3-13.8c-5.2-4.7-11.2-8.3-17.5-11.4c-5.9-2.9-11.8-5.9-18.3-7C950.5,1699.1,950.5,1701.6,949.9,1703.8z
	 M1001.4,1932.6c-2.2,18.8-4.5,37.6-6.7,56.5c-0.9,7.9-1.9,15.8-2.6,23.8c-0.7,7.3-1.4,14.6-1.6,21.9c-0.1,5.3,0.2,10.7,1.1,15.9
	c1.9,10.8,5,21.3,9.2,31.5c0.1,0.3,0.2,0.7,0.4,0.9c0.4,0.4,1,1,1.5,0.9c0.6,0,1.4-0.4,1.6-0.9c3.8-8.9,6.4-18.1,8.7-27.5
	c2-8.5,2.7-17.1,2-25.8c-0.8-10.3-1.8-20.5-2.9-30.8c-1-9.3-2.1-18.5-3.2-27.7c-1.5-12.5-3-25.1-4.5-37.6c-0.1-0.6-0.3-1.3-0.7-1.8
	c-0.4-0.5-1.1-0.7-1.6-1C1001.9,1931.5,1001.5,1932,1001.4,1932.6z M1635.4,1748.8c-0.9,0.2-2.2,0.2-2.6,0.8c-1,1.3-1.6,2.9-2.4,4.4
	c-3.5,7.2-6.9,14.4-10.5,21.5c-7,13.6-15,26.7-23.9,39.1c-15.2,21.2-32.8,40.2-52.7,57c-7.4,6.2-15.2,11.9-22.7,17.9
	c-1.4,1.1-3.4,1.8-3.8,4.2c1-0.1,2-0.1,2.9-0.4c10.4-3.5,20.3-8.3,29.7-14c25.5-15.4,45.9-36.1,61.5-61.4
	c8.2-13.3,14.6-27.6,19-42.7c2.5-8.6,4.3-17.4,5.3-26.4C1635.2,1748.7,1635.4,1748.8,1635.4,1748.8z M484.3,1888.8
	c-12.2-8.7-23.6-18.3-34.5-28.5c-21.9-20.6-40.6-43.9-55.7-69.9c-6.7-11.5-12.7-23.3-18.3-35.4c-1-2.1-2.1-4.1-3.2-6.2
	c-0.1-0.2-0.7-0.4-0.8-0.3c-0.4,0.3-1.1,0.8-1.1,1.2c0.8,6.3,1.5,12.5,3.1,18.7c4.1,15.1,9.6,29.6,17.4,43.3
	c18.1,31.7,43,56.3,75.4,73.2c6.2,3.2,12.6,6,19.2,8.2c0.8,0.3,1.8,0,3.5,0C487.3,1891.4,485.9,1890,484.3,1888.8z M876,2084.8
	c1.6,0.2,3.2,0.5,4.7,0.7c0.2,0,0.7-0.1,0.7-0.3c0.2-0.6-0.2-1-1-0.9c-1.6,0.2-3.1,0.4-4.7,0.6C875.8,2084.9,876,2084.8,876,2084.8z
	 M1130.5,2085.1c-2-0.5-4-1.4-6.3-0.3C1126.3,2086.4,1128.5,2084.3,1130.5,2085.1C1130.5,2085.1,1130.5,2085.1,1130.5,2085.1z
	 M1595.1,1798.7c2.3,1.1,3.7-0.1,4.7-1.8c0.4-0.8,0.4-1.8,0.5-2.8c0,0,0.2,0.2,0.2,0.2c-1.1-0.3-1.7,0.4-2.2,1.2
	c-0.9,1.3-1.5,2.7-3.1,3.3L1595.1,1798.7z M1346.5,1880.2c0.3,1.1,1.3,1.4,2.2,1.5c0.5,0,1-0.4,1.6-0.5c-0.4-0.3-0.8-0.9-1.2-0.9
	c-0.9-0.1-1.8,0.1-2.8,0.2C1346.4,1880.4,1346.5,1880.2,1346.5,1880.2z M1169.8,2218.9c0.3-0.9,0.5-1.7,0.7-2.6
	c0.2-0.8-0.2-1.2-0.9-1c-0.1,0,0,0.6,0,0.8c0.1,0.9,0.2,1.7,0.3,2.6C1169.9,2218.8,1169.8,2219,1169.8,2218.9z M410.8,1804.7
	c0-1.9,0-3.8,0-5.7l0.1-0.1c0,0.6,0.3,1.3,0.1,1.8c-0.8,1.5-0.5,2.9,0.1,4.3L410.8,1804.7z M835.8,2217.1c-0.1-0.5-0.2-0.9-0.2-1.4
	c0,0.2-0.1,0.4-0.1,0.6c0.1,0.3,0.3,0.5,0.4,0.7C836,2217,835.8,2217.1,835.8,2217.1z M1571.7,1792.5c1-0.5,2.1-0.9,3.1-1.5
	c0.4-0.3,0.6-0.8,0.9-1.3l-0.1-0.1c-1.6,0.4-2.7,1.4-3.6,2.7C1571.9,1792.2,1571.7,1792.5,1571.7,1792.5z M636.7,2059
	c-0.6-0.6-1.1-0.5-1.4,0.2c0,0,0.5,0.3,0.7,0.3c0.2-0.1,0.4-0.4,0.6-0.7C636.6,2058.8,636.7,2059,636.7,2059z M432.6,1786.9
	c-0.8,0.4-0.9,0.8-0.3,1.3c0,0,0.5-0.4,0.5-0.6c0-0.3-0.3-0.5-0.4-0.8C432.4,1786.8,432.6,1786.9,432.6,1786.9z M1575.5,1789.5
	c0.2-1.9,0.5-3.7,0.8-5.5c0,0,0.2,0.2,0.2,0.2c-1.4,0.5-1.9,1.4-1.7,2.8c0.2,0.9,0.5,1.8,0.8,2.6
	C1575.7,1789.7,1575.6,1789.6,1575.5,1789.5z M1369.3,2059.1c0.3,0.1,0.7,0.4,0.8,0.4c0.4-0.4,0-0.5-0.9-0.2
	C1369.3,2059.3,1369.3,2059.1,1369.3,2059.1z M1679,1688.7c-0.9-0.2-1.7,0.1-2.2,0.9c-0.5,0.7-1.1,1.3-1.6,2c0,0,0.3-0.2,0.3-0.2
	c1.4-0.6,2.7-1.4,3.2-3C1678.7,1688.5,1679,1688.7,1679,1688.7z M327.1,1688.9c0.6,0.4,0.5,1.7,1.7,1.3c0.1,0,0-0.8-0.1-0.8
	c-0.6-0.1-1.2-0.2-1.8-0.2C326.9,1689.1,327.2,1688.9,327.1,1688.9z M325.8,1684.1c-0.6,1.9,0.2,3.4,1.3,4.8c0,0-0.2,0.2-0.2,0.2
	c0.7-1.9,1.2-3.8-1.3-4.8C325.6,1684.3,325.8,1684.1,325.8,1684.1z M1675.5,1691.4c-0.6,0.5-0.6,1.1,0.2,1.4
	c0.2,0.1,0.7-0.1,0.7-0.2c0.1-0.8-0.3-1.1-1.2-1C1675.2,1691.6,1675.5,1691.4,1675.5,1691.4z M1595.3,1798.9c-0.3,2.1,0,4,0.6,5.9
	l0,0.1c-0.4-2,0.9-4.2-0.7-6.1C1595.1,1798.7,1595.2,1798.8,1595.3,1798.9z M1595.8,1804.8c-1.4,0.4-2.8,0.8-4.1,1.2
	c0,0-0.1,0.4-0.1,0.4C1592.9,1805.9,1594.4,1805.4,1595.8,1804.8C1595.8,1804.8,1595.8,1804.8,1595.8,1804.8z M410.8,1804.7
	c0.2,0,0.4,0.1,0.7,0.1c-0.1-0.6-0.3-0.6-0.4,0.1C411.1,1805,410.8,1804.7,410.8,1804.7z M410.8,1799c-1.4-0.1-2.7-1.1-4,0
	c0,0,0.3-0.3,0.3-0.3c1.2,1.3,2.5,0.9,3.8,0.2C410.9,1798.9,410.8,1799,410.8,1799z M1571.9,1792.2c0,0.2,0,0.3,0,0.5
	c0.6-0.3,0.5-0.4-0.2-0.3C1571.7,1792.5,1571.9,1792.2,1571.9,1792.2z M1635.2,1748.7c-0.7-0.6-0.8-0.6-0.4-0.1
	c0.1,0.1,0.4,0.1,0.7,0.2C1635.4,1748.8,1635.2,1748.7,1635.2,1748.7z M1591.6,1806.1c0.1,0.2,0.2,0.4,0.3,0.6
	c0.4-0.6,0.3-0.7-0.4-0.3C1591.5,1806.5,1591.6,1806.1,1591.6,1806.1z M1219.7,1883.4c0,0,0.5-0.3,0.5-0.3l-0.6,0.2
	C1219.6,1883.3,1219.7,1883.4,1219.7,1883.4z M1126.6,345.2c0.5-17,1-33.9,1.4-50.9c0.7-25,0.4-49.9-1.3-74.9
	c-0.4-6-1.3-11.9-2.2-17.8c-1-6.6-4.4-11.8-10.2-15.3c-2.5-1.6-5.1-3.1-7.9-4.2c-4-1.6-8.1-3-12.2-4.2c-11.2-3.2-22.8-4.9-34.4-5.7
	c-18.3-1.3-36.6-2.3-54.9-1.4c-3,0.1-6,0-9-0.1c-22.7-0.6-45.3,0.3-67.8,3.3c-8.9,1.2-17.7,3.1-26.2,6.1c-5.4,1.9-10.5,4.3-15,7.7
	c-3.9,2.9-6.5,6.7-7.5,11.4c-0.9,4.6-1.8,9.2-2.2,13.8c-1.2,13.9-2.1,27.9-2,41.9c0.1,10.7-0.1,21.3,0.1,32c0.4,20,1,39.9,1.7,59.9
	c0.8,21.3,1.8,42.6,2.6,63.9c0.1,1.3,0.2,2.7,0.3,4c1.1,17.9,2.1,35.9,3.2,53.8c0.8,13.6,1.7,27.2,2.6,40.9c0.9,12.6,2,25.2,3,37.8
	c1.6,19.6,3,39.2,4.8,58.7c2.1,22.5,4.8,45,7.1,67.5c2.2,20.5,5,41,8.6,61.3c1.6,8.8,3.9,17.5,5.7,26.3c2.2,10.3,7.9,18.2,16.7,23.8
	c3.4,2.2,6.7,4.4,10.2,6.3c4.1,2.3,8.3,4.3,12.5,6.3c13.6,6.3,27.8,10.9,42.2,15.3c3.6,1.1,7.2,0.9,10.8-0.2
	c10.2-3.1,20.3-6.3,30.2-10.2c8-3.2,16-6.7,23.5-10.9c5.5-3.1,10.8-6.6,15.7-10.6c4.8-3.9,8.2-8.7,10-14.6c0.8-2.6,1.5-5.1,2.2-7.7
	c3.6-13.5,5.9-27.3,7.9-41.1c1.7-11.5,3.2-23.1,4.6-34.6c1.8-14.5,3.6-29.1,5-43.6c1.8-17.6,3.2-35.1,4.8-52.7
	c0.8-8.6,1.5-17.2,2.2-25.9c1.1-12.6,2.2-25.2,3.1-37.8c1-13.9,1.9-27.9,2.7-41.9c1.3-21.3,2.5-42.5,3.8-63.8c0.1-2.3,0.3-4.7,0.4-7
	c1.1-21.6,2.1-43.2,3.2-64.8C1126.7,345.2,1126.6,345.2,1126.6,345.2z M1161.2,656.1c-1.6,12.2-3.1,24.4-4.8,36.6
	c-3.6,24.4-7.3,48.7-11.1,73c-4.7,30.2-10.2,60.4-15.9,90.4c-8.4,43.8-17.7,87.4-28,130.7c-17.8,75.5-38.4,150.1-62.3,223.9
	c-10.4,32.3-21.5,64.4-33.6,96.1c-0.9,2.5-2,4.9-3.1,7.2c-1.7-0.5-2.4-1.5-2.9-2.8c-2.8-7.5-5.7-14.9-8.4-22.4
	c-33.4-92-60.8-185.8-84.1-280.9c-8.9-36.5-17.3-73.2-24.7-110c-5.1-25.8-10.3-51.5-15-77.4c-3.9-21.6-7.4-43.3-10.9-65
	c-3.2-20-6.2-40.1-9.1-60.2c-2.4-16.7-4.1-33.5-7.5-51.5c0,4.5-0.2,7.5,0,10.4c0.9,12.6,1.9,25.2,3,37.8c1.5,16.6,2.9,33.2,4.8,49.7
	c2.1,18.5,4.5,37,7.1,55.4c3.4,24,6.9,48.1,10.8,72.1c4.5,27.6,9.6,55.1,14.4,82.6c1,5.9,1.8,11.8,2.6,17.8c0.2,1.6,0,3.3-0.3,4.9
	c-0.1,0.5-0.8,1.1-1.3,1.2c-0.5,0.2-1.4,0-1.8-0.4c-2.1-2.1-4.2-4.2-6.2-6.5c-15.3-18-30.6-36-45.9-54c-1.9-2.3-4-4.5-6-6.6
	c-0.2-0.2-0.8-0.3-0.9-0.2c-0.4,0.3-1,0.9-0.9,1.3c0.2,1.6,0.5,3.3,0.9,4.9c7,27.1,13.9,54.1,21,81.1
	c17.5,65.9,35.7,131.6,55.9,196.7c9.8,31.8,20.1,63.4,31.9,94.5c6.8,18.1,14.3,35.8,23.5,52.9c4.6,8.5,9.6,16.8,15.4,24.5
	c4.2,5.6,8.8,10.9,14.1,15.4c3.8,3.3,8,6,12.6,7.9c4.6,1.9,9,2,13.5,0.1c5.6-2.3,10.5-5.7,14.9-9.8c6.1-5.7,11.3-12.2,16-19.1
	c5.8-8.5,10.9-17.5,15.5-26.8c8.5-17,15.6-34.6,22.2-52.4c13.3-35.9,24.8-72.4,35.9-109c23.9-79.3,45.5-159.3,66.1-239.5
	c1.7-6.4,3.3-12.9,4.9-19.3c0.2-1,0.4-1.9,0.6-2.9c0-0.3-0.2-0.9-0.3-0.9c-0.5-0.1-1.3-0.2-1.6,0.1c-6.8,7.8-13.5,15.6-20.2,23.5
	c-11.2,13.2-22.5,26.3-33.7,39.5c-1.5,1.7-3.3,3.3-5,4.8c-0.3,0.3-1.2,0.1-1.8-0.1c-0.2,0-0.5-0.4-0.6-0.7c-0.2-1.3-0.4-2.6-0.4-3.9
	c0.2-7.4,1.7-14.5,2.9-21.7c2.3-13.4,4.8-26.9,7.1-40.3c3.1-17.7,6.2-35.4,9-53.1c2.4-14.8,4.6-29.6,6.8-44.4
	c1.9-13.2,3.7-26.4,5.4-39.6c1.7-13.2,3.2-26.4,4.6-39.7c1.2-11.2,2.3-22.5,3.4-33.8c1-10.6,1.8-21.2,2.6-31.8
	c0.2-3.3,0.2-6.7,0.2-10c0-0.6-0.4-1.2-0.6-1.9C1161.9,655.2,1161.3,655.6,1161.2,656.1z M864.3,77.3c-1.4,0.2-2.5,0.6-2.8,2.2
	c-1.5,8.5-3.1,17-4.5,25.6c-1.7,10.8-3.1,21.7-4.7,32.6c-2.2,15.2-3.8,30.4-5.1,45.6c-1,11.3-1.6,22.6-2.6,33.9
	c-1.8,19.9-2.5,39.9-3.1,59.8c-0.7,25-0.8,49.9-0.8,74.9c0,31.3,0.3,62.6,2.1,93.9c0.8,13.6,1.7,27.3,2.2,40.9
	c0.8,23,3.4,45.8,4.9,68.7c0.6,8.3,1.2,16.6,2.1,24.9c2.5,23.2,5,46.3,7.6,69.5c0.7,6.3,1.6,12.6,2.4,18.8c1.7,12.5,3.5,25,5.3,37.6
	c1.5,10.9,2.9,21.8,4.7,32.6c2.9,18.1,5.9,36.1,9,54.2c4.3,25.2,8.7,50.5,13.3,75.7c3.4,19,7.1,37.9,10.9,56.8
	c5.5,27.1,11.1,54.1,17,81.1c5.8,26.6,12.2,53.2,19,79.6c13,51,27.4,101.5,44.4,151.3c4.3,12.6,9.1,25,13.6,37.5
	c0.6,1.6,1.2,3.1,3.2,4.1c0.9-2.1,2-4.2,2.8-6.3c7.3-18.9,13.9-38.1,20.2-57.4c16.7-51.3,30.9-103.3,43.6-155.6
	c6.1-24.9,11.6-49.9,17.1-74.9c6.1-27.6,11.7-55.3,17-83.1c3.8-19.9,7.5-39.9,11.2-59.9c2.4-13.4,4.7-26.9,6.9-40.3
	c2.4-14.1,4.8-28.2,7.1-42.3c2.2-13.5,4.3-26.9,6.3-40.4c2.4-16.8,4.7-33.6,6.9-50.5c2-15.5,3.8-31.1,5.6-46.6
	c0.9-7.9,1.8-15.9,2.6-23.8c1.1-10.3,2.2-20.5,3.1-30.8c1-11.6,1.8-23.2,2.7-34.8c1-13.3,2.3-26.5,3-39.8c1.1-21.9,2.9-43.9,3-65.8
	c0-3.3,0.3-6.7,0.4-10c0.3-11.3,0.8-22.6,0.9-33.9c0.2-16,0.3-32,0.2-47.9c-0.2-19.6-0.2-39.3-1-58.9c-0.8-19.6-1.2-39.3-3-58.8
	c-1-11.3-1.6-22.6-2.6-33.9c-0.6-7.6-1.4-15.2-2.3-22.8c-1.6-13.2-3.3-26.4-5.1-39.6c-2.2-15.8-4.7-31.6-8.2-47.2
	c-0.1-0.6,0.1-1.7-1.4-1.6c0,1.4-0.1,2.7,0,4c0.8,7.6,1.8,15.2,2.6,22.8c1,8.9,2,17.9,2.8,26.8c1.1,12.6,1.8,25.2,2.9,37.8
	c2.3,27.9,3.6,55.8,4.6,83.8c1.8,48.6,1.5,97.2,0.5,145.8c-0.1,5.3-0.4,10.6-0.6,16c-0.4,9.3-0.7,18.6-1.2,27.9
	c-0.9,16-1.7,31.9-2.8,47.9c-0.9,13.6-2.1,27.2-3.2,40.8c-0.8,10.3-1.7,20.6-2.7,30.8c-0.8,8.6-1.6,17.2-2.6,25.8
	c-1.5,12.9-3,25.8-4.6,38.7c-2.2,17.5-4.2,35-6.7,52.5c-3.6,25.4-7.6,50.7-11.6,76c-2.4,15.1-5.2,30.2-7.6,45.3
	c-0.4,2.7-1.2,5.2-2.2,7.6c-10.1,23.6-19.9,47.2-30.3,70.7c-11.7,26.5-23.9,52.7-36,79c-4,8.8-8.5,17.3-14,25.3
	c-3.4,5-7.2,9.6-11.6,13.7c-3.2,2.9-6.7,5.5-10.7,7.2c-1.6,0.7-3.1,0.8-4.8,0.1c-5.3-2.2-9.7-5.7-13.7-9.8
	c-4.9-5.1-8.9-10.8-12.6-16.7c-4.7-7.7-8.6-15.8-12.3-24c-7.5-16.7-15.1-33.3-22.7-50c-4.4-9.7-9-19.3-13.3-29
	c-9.1-21.1-18.1-42.2-27.2-63.3c-1.9-4.3-3.3-8.7-4-13.3c-2.9-17.4-5.8-34.8-8.6-52.2c-1.7-10.5-3.2-21.1-4.8-31.6
	c-2.5-17.1-5.1-34.2-7.5-51.4c-0.9-6.6-1.7-13.2-2.5-19.8c-1.7-14.2-3.5-28.4-5.2-42.6c-1-8.9-1.9-17.9-2.7-26.8
	c-1-10.6-2.1-21.2-3.1-31.8c-1.1-12.3-2-24.6-2.9-36.8c-1.1-14.3-2.3-28.5-3-42.8c-1.1-21.6-2-43.2-2.6-64.9
	c-0.6-24.3-1.1-48.6-1.1-72.9c0.1-23,0.7-45.9,1.4-68.9c0.6-19,1.6-37.9,2.5-56.9c0-0.7,0.1-1.3,0.1-2c1-14.3,2-28.6,3.2-42.8
	c1.4-17.2,3.1-34.5,4.7-51.7c0.6-6.3,1.6-12.5,2.4-18.8L864.3,77.3z M864.1,77c0.1-1.3,0.4-2.6,0.4-3.9c0-1.1,0.9-2.5-0.7-3.4
	c-0.7,2.6-0.8,5.1,0.5,7.5C864.3,77.3,864.1,77.1,864.1,77z M1443.9,120.5c17.5,24.9,31.9,51.5,44.3,79.2
	c14.9,33.5,26.8,68.1,35.4,103.8c2.3,9.4,4.8,18.7,6.5,28.2c3.3,18.7,6.9,37.3,9.2,56.1c2.2,18.9,4.3,37.7,5.3,56.6
	c0.2,4.3,0.6,8.6,0.9,13c0.3,4,0.6,8,0.6,12c0.2,12.7,0.4,25.3,0.4,38c0,10,0,20-0.7,29.9c-1.1,16.9-2.6,33.8-4.9,50.7
	c-3,22.1-6.7,44.1-11.2,65.9c-7.8,38.2-17.5,75.8-28.3,113.3c-15.3,53.4-33,106.1-51.9,158.3c-25.2,69.5-52.9,137.9-82,205.8
	c-31.7,74-65.2,147.2-100.7,219.6c-1.3,2.7-2.5,5.4-3.7,8.2c-0.5,1.1,0.4,2.8,1.5,3.3c1.5,0.7,3.1,1.3,4.8,0.9
	c3.6-0.8,7.1-1.6,10.7-2.6c16.4-4.5,32.4-10.3,47.3-18.5c10.8-6,8.8-4.8,13.8-13.7c1-1.7,2-3.5,2.9-5.2c13-24.4,25.1-49.2,36.6-74.3
	c27-58.7,51.8-118.2,75.8-178.2c5.7-14.2,11.2-28.5,16.7-42.8c0.3-0.9,0.4-1.9,0.5-2.8c0-0.1-0.5-0.4-0.6-0.4
	c-1,0.8-2.1,1.6-2.9,2.6c-5.9,7.2-12.3,14-19.1,20.4c-8.3,7.7-17.3,14.6-27.2,20.2c-1.1,0.6-2.4,1-3.7,1.4c-0.2,0.1-0.6-0.2-0.7-0.4
	c-0.2-0.2-0.5-0.6-0.4-0.8c0.6-1.9,1.1-3.8,1.8-5.7c12.4-30.5,23.4-61.6,33.7-92.8c28.7-86.9,53.1-175.1,75.1-263.9
	c10.8-43.6,19-87.8,23.4-132.6c2-20.2,3.4-40.5,3.3-60.8c-0.1-31.7-1.8-63.2-4.4-94.7c-0.1-1-0.2-2-0.3-3
	c-1.2-9.2-2.3-18.5-3.5-27.7c-1.1-8.2-2.3-16.5-3.7-24.7c-1.2-7.2-2.7-14.4-4-21.6c-3.3-18.4-7.9-36.4-12.9-54.4
	c-5.3-18.9-11.5-37.5-18.6-55.8c-10.6-27-23.3-53-38.7-77.6c-6-9.6-12.4-18.9-19.6-27.7c-1.3-1.5-2.6-3.1-4-4.4
	c-0.7-0.7-1.8-0.6-2.7,0L1443.9,120.5z M1443.7,120.7c0.8-1.2,0.7-2.3-0.1-3.4c-0.9-1.2-2-2.4-1.7-4.1l0,0.1
	c-0.7,1.6-0.8,3.2,0.4,4.6c0.6,0.8,1.1,1.7,1.6,2.5C1443.9,120.5,1443.7,120.7,1443.7,120.7z M1438.9,110.7c-0.2,0-0.4-0.1-0.6-0.1
	c0,0.7,0.2,0.8,0.6,0.3C1438.9,111,1438.9,110.7,1438.9,110.7z M1441.9,113.4c-1-0.9-2-1.7-3.1-2.6c0,0,0,0.2,0,0.2
	C1439.4,112.4,1440.2,113.4,1441.9,113.4C1441.9,113.3,1441.9,113.4,1441.9,113.4z M560,114.9c0.1,1.4-0.6,2.5-1.5,3.5
	c-5.3,6.8-10.8,13.5-15.8,20.6c-14.6,20.7-26.8,42.9-37.3,65.9c-6.2,13.6-11.7,27.6-16.8,41.6c-5.6,15.3-10.4,30.9-14.6,46.7
	c-4.4,16.7-8.7,33.5-11.6,50.6c-1.5,8.9-3.4,17.6-4.8,26.5c-1.4,8.5-2.5,17.1-3.5,25.7c-1,9.3-2.8,18.4-3,27.8c0,2-0.3,4-0.5,6
	c-1.6,18.6-3.2,37.1-3.2,55.8c0,7.7-0.4,15.3-0.3,23c0.1,13,0.1,26,0.9,38.9c1.4,23.3,4.1,46.4,7.8,69.4c4.5,27.9,10,55.6,16.5,83.2
	c5.2,22,11.1,43.8,16.8,65.7c14.2,54.1,29.3,107.8,46,161.2c14.5,46.4,29.9,92.4,48.2,137.4c0.5,1.2,0.8,2.5,1.2,3.8
	c0.1,0.2-0.2,0.6-0.4,0.8c-0.2,0.2-0.6,0.4-0.8,0.4c-1.3-0.4-2.6-0.7-3.7-1.4c-8.1-4.6-15.6-10.1-22.7-16.2
	c-10.4-8.9-19.6-18.9-27.9-29.8l0.4,0c-0.4,3.8,1,7.2,2.4,10.6c27,68.8,54.9,137.1,85.4,204.4c13.5,29.7,27.4,59.2,43,87.9
	c7,12.9,7,12.9,20.1,19.5c2.1,1.1,4.2,2,6.3,3c13.9,6.5,28.5,11.1,43.3,15c1.6,0.4,3.3,0.7,4.9,0.7c1.3,0,2.6-0.5,3.8-1
	c1.2-0.4,2-2.2,1.6-3.3c-1.1-2.4-2.1-4.9-3.3-7.3c-39.3-80.1-76.2-161.2-110.9-243.4c-32.4-76.6-62.9-154-89.8-232.7
	c-21.5-62.7-40.7-126-55.7-190.5c-5.1-22-9.7-44.2-13.4-66.5c-2.5-14.8-4.6-29.6-6.3-44.5c-1.7-15.6-3.4-31.1-3.5-46.8
	c-0.1-17,0-34,0.1-50.9c0-6,0-12,0.4-18c1-14.9,2.1-29.9,3.3-44.8c0.6-7.6,1.6-15.2,2.6-22.8c1.2-9.6,2.5-19.1,4-28.7
	c1-6.2,2.5-12.4,3.4-18.6c3-18.8,7.6-37.2,12.6-55.5c7.4-27,16.5-53.4,27.5-79.1c12.8-29.8,27.6-58.3,45.9-85.1
	c1.1-1.6,2.2-3.3,3.2-5C561.2,117.4,560.5,116.2,560,114.9C560,115,560,114.9,560,114.9z M566.5,112.2c0.2-0.2,0.5-0.4,0.4-0.5
	c-0.2-0.6-0.6-0.6-1-0.1c0,0.1,0.2,0.4,0.3,0.5C566.2,112.2,566.5,112.2,566.5,112.2z M566.2,112.2c-0.9,0.4-1.8,0.9-2.8,1.3
	c0,0,0.2,0.3,0.2,0.3c0.5-1.3,1.9-1,2.8-1.6C566.5,112.2,566.2,112.2,566.2,112.2z M606.9,113.5c0.4,0,0.8,0,1.2-0.1
	c-0.1-0.1-0.3-0.2-0.4-0.1c-0.2,0.1-0.4,0.3-0.6,0.5C607.1,113.7,606.9,113.4,606.9,113.5z M563.7,113.8c-1.2,0.4-2.5,0.8-3.7,1.2
	c0,0,0,0,0,0c1.3-0.1,2.8,0.2,3.5-1.5C563.4,113.5,563.7,113.8,563.7,113.8z M529.6,1022c-0.8,0.5-0.8,0.7,0,0.6
	c-0.2-0.2-0.3-0.4-0.5-0.6C529.2,1022,529.6,1022,529.6,1022z M269.6,323.6c-1.5-0.1-2.5,0.8-3.4,1.7c-4.5,4.5-9,8.9-13.3,13.5
	c-28.2,30.2-50.5,64.3-68.8,101.2c-6.6,13.4-12.7,27.1-18.2,41.1c-5.7,14.5-10.9,29.3-15.3,44.3c-4.6,15.6-8.5,31.5-12,47.4
	c-5.1,23.1-8.6,46.5-10.3,70.1c-1.8,24.2-2.5,48.5-1.2,72.9c1.5,26.6,4,53.1,8.3,79.4c5.1,31.9,12.4,63.3,21.6,94.3
	c7.7,26.2,16.8,51.9,25.8,77.7c22.5,64.4,47.3,127.9,78.3,188.9c0.3,0.6,0.4,1.2,0.5,1.9c0,0.3-0.1,0.6-0.3,0.9
	c-0.2,0.2-0.6,0.4-0.8,0.3c-1.2-0.5-2.4-1-3.5-1.8c-8.7-6.1-17.6-12-26.1-18.4c-23-17.1-44.7-35.7-66.1-54.8c-2.2-2-4.5-3.9-6.8-5.8
	c-0.3-0.3-1.1-0.1-1.6,0.1c-0.2,0.1-0.4,0.6-0.3,0.9c0.3,1.3,0.6,2.6,1,3.8c5.1,13.8,11.2,27.1,17.8,40.1
	c27.2,53.9,58.6,105.2,93.3,154.6c3.1,4.4,6.4,8.5,9.6,12.7c3.9,5.1,8.9,8.9,14.6,11.9c4.7,2.5,9.6,4.5,14.7,6.2
	c13.9,4.7,28.3,7.6,42.8,9.7c14.2,2.1,28.4,3.5,42.7,4.8c20.6,1.8,41.3,1.1,61.9,1.3c0.3,0,0.7-0.1,1-0.1c1.5-0.1,2.4-1,3.1-2.2
	c0.8-1.3,0.6-3.4-0.6-4.6c-2.8-2.9-5.6-5.7-8.4-8.5c-22.9-22.4-45.4-45-67-68.6c-31.2-34.2-61.4-69.2-89.5-106.1
	c-23.9-31.3-45.1-64.3-63.5-99.1c-38-72-65.1-147.9-80.9-227.8c-3.5-18-6.2-36.1-8.3-54.3c-1.8-15.9-2.8-31.8-3.6-47.8
	c-0.7-15-0.8-30,0.1-44.9c0.8-13.3,1.2-26.6,3.1-39.8c1.6-10.9,2.6-21.8,4.7-32.6c3.7-19.3,7.7-38.5,13.1-57.4
	c4.1-14.4,8.7-28.6,13.9-42.7c8.7-23.4,19-46.1,31.1-68c12.9-23.4,27.3-45.7,43.8-66.7c6.8-8.6,14.1-16.9,21.1-25.3
	c1-1.2,2.4-2.3,2.3-4.2L269.6,323.6z M279.3,312.6c0.1,0.2,0.2,0.6,0.3,0.5c0.6-0.1,0.8-0.4,0.4-0.9c0-0.1-0.4,0.1-0.6,0.2
	L279.3,312.6z M279.3,312.4c-0.7,0.8-1.3,1.6-2,2.5l0.2,0.3c0.6-0.8,1.1-1.7,1.7-2.5C279.3,312.6,279.3,312.4,279.3,312.4z
	 M277.6,315.2c-0.8,0.6-1.5,1.3-2.3,1.9l-0.2-0.3c1.5,0.2,2.2-0.5,2.3-1.9C277.4,314.9,277.6,315.2,277.6,315.2z M273.4,319.5
	c-1.1,0.4-1.9,1-1.6,2.3c0,0-0.2-0.2-0.2-0.2c1.8-0.5,1.8-0.5,1.5-2.3C273.2,319.2,273.4,319.5,273.4,319.5z M269.8,323.8
	c1.5,0,2.1-0.7,1.8-2.2c0,0,0.2,0.2,0.2,0.2c-1.4-0.2-2.1,0.4-2.2,1.8C269.6,323.6,269.8,323.8,269.8,323.8z M275.3,317.1
	c-0.6,0.8-1.3,1.6-1.9,2.3c0,0-0.2-0.2-0.2-0.2c2.2-0.1,2.2-0.1,1.9-2.4C275,316.8,275.3,317.1,275.3,317.1z M295.1,1118.8
	c0.1-0.1,0.3-0.2,0.4-0.3c-0.7,0-0.7,0.1-0.1,0.3C295.4,1118.8,295.1,1118.8,295.1,1118.8z M1741.5,1159.4c0.1-0.2,0.2-0.5,0.4-0.5
	c0.2,0,0.5,0.1,0.7,0.2c-0.1-0.9-0.4-2-0.1-2.8c0.8-2.2,2-4.2,3-6.3c8.8-17.6,17-35.4,24.9-53.4c28.3-64.7,51.8-131.2,73.4-198.3
	c10-31.1,17.4-62.8,22.9-95c2.5-14.4,4.8-28.9,6.1-43.5c1.2-12.9,2.7-25.8,3.2-38.8c1.2-28.3,1.2-56.6-1.5-84.8
	c-1.4-13.9-3-27.8-5.4-41.6c-4.1-22.9-9.3-45.6-15.8-68c-4-13.7-8.6-27.3-13.7-40.6c-8.9-23.3-19.4-46-31.6-67.8
	c-16.3-29.2-35.5-56.3-58.4-80.7c-7.1-7.5-14.4-14.8-22.4-21.2c-0.7-0.6-1.2-0.5-1.6,0.2c1.3,1.5,2.6,3,3.9,4.5
	c20,21.1,37.5,44.1,53.3,68.5c10.5,16.2,19.9,33,28.5,50.4c7.7,15.5,14.6,31.4,20.6,47.6c4.7,12.8,8.8,25.8,12.8,38.9
	c5.2,17.2,9,34.7,12.7,52.4c4.4,21.2,7.3,42.7,8.7,64.3c2.5,38.3,1.5,76.5-3.1,114.6c-3.1,25.5-7.4,50.7-13.2,75.7
	c-12.8,55.6-31.3,109.3-55.2,161.2c-22.2,48.2-48.7,93.9-80.9,136.2c-42.8,56.3-89.6,109-139.6,159c-8,8-16.1,15.9-24.2,23.9
	c-1.4,1.4-2.8,2.9-4.1,4.3c-1,1.1-1.2,3.3-0.4,4.7c0.7,1.3,1.8,1.9,3.2,2c1.7,0.1,3.3,0.2,5,0.2c12,0,24,0,36-0.1
	c4.3,0,8.7-0.2,13-0.5c16.9-1.3,33.8-2.8,50.6-5.3c12.8-2,25.6-4.3,38-8.1c6.7-2,13.2-4.4,19.5-7.6c6-3.1,11.3-7.1,15.4-12.5
	c4-5.3,8.1-10.5,11.9-16c32.2-46.2,61.5-94.1,87.4-144.2c7.3-14.2,14.1-28.6,19.9-43.5c1-2.5,1.7-5,2.6-7.5c0.1-0.3-0.1-0.6-0.2-0.9
	c-0.3-0.6-0.8-0.7-1.5-0.1c-2.8,2.3-5.6,4.7-8.3,7.1c-20.4,18.2-41.2,35.9-63,52.3c-9,6.8-18.4,13.1-27.7,19.7
	c-1.4,1-2.7,1.9-4.5,1.8C1742.1,1159.1,1741.8,1159.2,1741.5,1159.4z M1512,1364.1c-3.3,0.6-6.5,1.1-9.8,1.8
	c-8.8,1.9-17.3,4.7-25.8,7.7c-22,7.8-43.2,17.3-64.1,27.6c-17.3,8.6-34.4,17.4-51.5,26.4c-19.6,10.3-40.5,16.8-62.2,20.9
	c-17.7,3.3-35.5,5.3-53.5,6.5c-21.3,1.4-42.6,1.7-63.9,0.8c-5.1-0.2-9.9,0.5-14.8,1.8c-9,2.5-17.5,6.2-25.7,10.7
	c-10.8,5.9-19.3,14.1-25.2,25c-3,5.6-6,11.1-8.5,16.9c-3.8,8.9-7.3,17.9-10.5,27c-7.6,21.3-14,43-20.1,64.8
	c-2.7,9.7-3.9,19.6-3.4,29.6c0.3,7,1.7,13.9,4.3,20.4c2.3,5.8,6.3,10.1,12,12.8c3.9,1.9,8,3.2,12.4,3.5c8.7,0.6,17.3-0.4,25.6-3.1
	c8.2-2.7,16.2-6,23.7-10.4c12.1-7.1,24.1-14.2,35.9-21.6c14.4-9,28.6-18.3,42.8-27.5c21.3-13.7,43.4-26,66.4-36.6
	c33.6-15.4,67.3-30.4,101.6-44c20.7-8.2,41.7-15.8,63.2-21.7c17.1-4.7,34.4-7.6,52.2-6.7c12.6,0.6,25.2,2.1,37.6,4.7
	c10.8,2.2,21.3,5.1,31.6,8.9c1.4,0.5,2.9,1.9,4.9,0.6c-1.1-0.9-2-1.8-3.1-2.4c-3.8-2.1-7.5-4.2-11.4-6.1
	c-25.8-12.7-53.3-18.4-81.9-19.7c-25.1-1.1-49.9,1.6-74.4,6.6c-21.9,4.5-43.2,10.9-64.2,18.5c-27.5,10-55.1,19.8-82.7,29.5
	c-29.2,10.2-58.6,19.9-88.4,28.1c-11.9,3.3-23.8,6.3-36,8.1c-3.3,0.5-6.6,0.8-9.9,0.7c-8.1-0.3-14-5.4-16.2-13.7
	c-0.1-0.2,0.2-0.6,0.4-0.8c0.1-0.1,0.5-0.3,0.7-0.2c0.8,0.6,1.6,1.2,2.3,1.9c6.5,6.3,14.5,7.8,23.1,6.5c3.9-0.6,7.8-1.7,11.6-2.7
	c29.6-7.9,58.8-16.8,88-26c27.3-8.6,54.4-17.7,81.1-27.9c17.4-6.7,35-12.6,52.9-17.8c25.9-7.5,52.1-13.6,79.2-15.5
	c0.5,0,0.9-0.5,1.6-0.9c-1.2-0.2-2.2-0.5-3.1-0.5c-2.7-0.1-5.3-0.2-8-0.2c-8.3,0.1-16.6,0.9-24.9,1.8c-14.9,1.7-29.6,4.2-44.2,7.6
	c-19.8,4.6-39.3,10-58.8,15.8c-33.2,9.8-66.3,19.8-99.4,29.7c-15,4.5-30,8.8-45.2,12.3c-8.2,1.8-16.4,2.6-24.8,1.1
	c-7-1.3-13.4-4-18.9-8.6c-7.9-6.7-11.8-15.2-10.6-25.6c1.4-11.8,6.6-21.8,16.1-28.9c14.4-10.8,30.3-18,49-17c1.7,0.1,3.3,0,5,0.1
	c25,0.4,49.9-0.6,74.7-3.7c13.2-1.7,26.3-3.8,39.3-6.7c21.2-4.7,41.5-12.1,60.5-22.8c9.9-5.5,19.9-10.8,29.9-16.1
	c17.9-9.5,35.9-18.9,54.3-27.4c18.1-8.4,36.7-15.7,55.9-21.1c1.3-0.4,2.6-0.7,3.7-1.2c0.5-0.2,0.6-1.1,0.9-1.6
	C1511.8,1363.9,1512,1364.1,1512,1364.1z M1535,1361.2c-2-0.1-3.9-0.1-5.9-0.1c-0.4,0-0.8,0.4-1.2,0.7c0.4,0.2,0.7,0.4,1,0.4
	c3.3-0.1,6.6-0.2,10-0.3C1537.6,1360.9,1536.3,1361.3,1535,1361.2z M1511.8,1364c2.2,1,4.4,0.6,6.6,0.4c0.9-0.1,1.2-0.4,0.7-1.2
	c-2.5-0.8-4.8-0.3-7.1,1C1512,1364.1,1511.8,1363.9,1511.8,1364z M414.7,1512c3.5,0.8,6.6-0.8,9.6-1.9c21.1-7.9,43-11.6,65.3-13.1
	c7.6-0.5,15.3-0.5,22.9,0.4c10.9,1.2,21.7,3.4,32.3,6.3c19.9,5.4,39.3,12.4,58.5,19.9c30.1,11.7,59.5,25,89,37.9
	c32.1,14.1,62.8,30.7,92.1,49.8c13.4,8.7,26.8,17.4,40.3,25.9c9.9,6.2,19.9,12.1,30,17.9c7.5,4.3,15.5,7.7,23.8,10.3
	c8.3,2.7,16.9,3.9,25.6,2.9c12.7-1.4,21.9-7.3,25.5-20.3c2.7-9.4,3.7-18.9,2.7-28.6c-0.8-6.9-1.9-13.9-4-20.6
	c-5.9-19.1-11.6-38.2-17.8-57.2c-3.9-12-8.5-23.8-13.8-35.3c-3.2-6.9-6.8-13.7-11.3-20c-3.9-5.5-8.6-10.2-14.2-13.9
	c-10.3-6.9-21.5-12-33.5-15.2c-4.2-1.1-8.5-1.7-12.8-1.5c-22,1-43.9,0.6-65.9-0.9c-18-1.2-35.8-3.2-53.5-6.6
	c-21.3-4.1-41.9-10.5-61.1-20.8c-9.1-4.9-18.3-9.5-27.5-14.2c-17.5-9-35-17.8-53-25.7c-22.6-9.9-45.5-18.7-69.7-24l0.2-0.2
	c0.1,1.4,0.6,2.5,2.1,2.9c24.9,6.6,48.4,16.7,71.4,28c8.7,4.3,17.3,8.6,25.8,13.1c16.2,8.5,32.3,17.2,48.4,25.9
	c16.2,8.7,33.3,15,51.2,19.4c15.2,3.7,30.6,6.4,46.1,8.2c18.5,2.2,37.1,3.6,55.8,3.6c8.7,0,17.3,0,26-0.1c8.8-0.1,17.2,1.7,25.2,5.3
	c5.8,2.5,11.3,5.5,16.7,8.9c9.8,6.2,15.9,15.2,18.9,26.1c3.2,11.5,0.6,21.8-8.4,30.1c-5.5,5.1-12.1,8.1-19.4,9.6
	c-8.7,1.8-17.3,1-25.7-1c-8.1-1.9-16.2-3.9-24.1-6.2c-26.8-7.9-53.6-15.9-80.3-23.8c-30.3-9-60.5-18.2-91.2-25.9
	c-20.4-5.1-41-8.5-61.9-10.5c-7.6-0.7-15.3-0.4-22.9-0.5c-0.8,0-1.5,0.4-3.7,1c2.7,0.3,4,0.6,5.3,0.6c8.4,0.2,16.6,1.7,24.8,3.1
	c22,3.7,43.5,9.4,64.8,16.2c18.1,5.7,35.8,12.5,53.6,19c51.6,18.8,104.1,34.6,157,49.3c3.2,0.9,6.5,1.7,9.7,2.2
	c9,1.3,17.2-0.3,23.8-7.2c0.7-0.7,1.5-1.3,2.2-2c0.3,0.6,0.9,1.2,0.8,1.5c-0.8,2.1-1.6,4.4-2.8,6.3c-3.3,5.1-8.2,7.7-14.3,7.7
	c-3.3,0-6.6-0.4-9.9-0.9c-9.6-1.4-18.9-3.6-28.3-6.1c-22.2-5.8-44.1-12.8-65.9-19.9c-37.9-12.5-75.4-26.1-112.9-39.7
	c-33-12-66.7-20.7-101.7-23.8c-22.4-2-44.5-1.5-66.6,2.3c-24.2,4.2-46.9,12.2-67.7,25.5c-0.5,0.3-1.2,0.5-1.8,0.7
	C414.6,1512.4,414.7,1512,414.7,1512z M467.2,1361.9c3.3,0.1,6.6,0.3,9.9,0.4c0.3,0,0.6-0.2,0.8-0.4c0,0-0.1-0.3-0.2-0.6
	c-3.5,0-7,0-10.4,0C467.2,1361.5,467.2,1361.7,467.2,1361.9z M494.4,1363.8c-2.5-0.5-5-1.4-7.6-0.7c-0.2,0-0.3,0.6-0.4,1
	c2.8,0.8,5.5,1.2,8.2-0.5C494.6,1363.6,494.5,1363.7,494.4,1363.8z M414.7,1512c0.1,0.2,0.2,0.5,0.3,0.7c0.5-0.6,0.3-0.7-0.5-0.3
	C414.6,1512.4,414.7,1512,414.7,1512z M1063,2323.6c0,0.7-0.2,1.4,0.1,2c1.6,3.7,2.2,7.6,2.4,11.6c0.7,10.9,1.4,21.9,2.3,32.8
	c0.8,10.3,1,20.6,0.8,30.9c-0.1,4.3-1,8.6-1,12.9c0,7.3-4.3,10.5-10.6,12.4c-9.9,2.9-19.9,5.1-30.3,5.5c-3,0.1-6,0.3-8.9,0.4
	c-0.8,0-1,0.6-0.5,1.4c0.2,0.3,0.4,0.6,0.6,0.7c1.2,0.4,2.5,0.8,3.8,0.9c9.7,0.6,19.2-0.9,28.7-2.7c5.5-1.1,11-2.5,16.2-4.7
	c3-1.3,4.8-3.5,5.5-6.6c0.5-2.3,0.9-4.6,1-6.9c0.3-5.6,0.5-11.3,0.6-16.9c0.1-20-1.6-39.8-2.9-59.7c-0.3-5.1-2.4-9.6-6-13.3
	c-0.4-0.4-1.2-0.3-1.8-0.5C1062.8,2323.8,1063,2323.6,1063,2323.6z M1060.2,2316.6c0.7,0.4,0.8,0.9,0.5,1.5
	c-1.2,2.9-0.9,3.7,2.3,5.5c0,0-0.2,0.2-0.2,0.2c0.1-1.6-0.7-2.8-1.7-4c-0.8-1-1-2.1-0.8-3.4
	C1060.3,2316.5,1060.2,2316.6,1060.2,2316.6z M947.5,2318.5c-4.4,1.5-6.6,5.3-9,8.8c-2.1,3.1-3.3,6.5-3.5,10.2
	c-1,17.2-2.2,34.5-3.1,51.7c-0.5,9.3,0.1,18.6,0.9,27.9c0.5,6,2.9,10.1,8.9,11.7c2.2,0.6,4.4,1.5,6.7,2.1c8.7,2.2,17.6,3.5,26.5,4.2
	c3.3,0.2,6.6,0,10-0.1c0.9,0,2-0.4,2.8-0.8c0.5-0.2,0.6-1,0.9-1.6c0-0.1-0.4-0.5-0.6-0.5c-8.6-0.6-17.2-0.6-25.7-2.5
	c-6.5-1.4-13-2.8-19-5.7c-2.2-1.1-3.6-2.8-4.2-5.2c-1.5-5.8-1.8-11.8-1.9-17.8c-0.5-21.3,1.5-42.5,2.9-63.7c0.4-6.2,2.2-11.7,6-16.6
	c0.6-0.8,1.1-1.6,1.7-2.4C947.7,2318.3,947.5,2318.5,947.5,2318.5z M948,2315.1c-0.8,0.4-1.6,0.9-2.4,1.3c0.7,0.6,1.4,1.3,2.1,1.9
	c0,0-0.1,0.3-0.1,0.3c0.1-1.2,0.2-2.4,0.3-3.7C947.9,2314.9,948,2315.1,948,2315.1z M1143.7,2311.3c-0.7,1.3-0.2,2.5,0.4,3.7
	c3.5,6.8,5.5,14.2,7,21.7c1.7,8.5,2.5,17.1,3.1,25.7c0.9,12.6,0.9,25.2-0.9,37.8c-0.8,5.3-3.2,8.5-8,10.4c-1.2,0.5-2.4,1-3.7,1.5
	c-11.9,4.6-24.2,7.2-36.9,7.3c-2.3,0-4.7-0.6-6.8,0.6c0.2,0.3,0.2,0.7,0.5,0.8c0.5,0.3,1.1,0.6,1.8,0.7c7.6,1.6,15.2,0.9,22.8,0
	c9.6-1.2,18.8-4,27.7-7.8c4.9-2,7.3-5.4,7.9-10.5c0.1-0.7,0.2-1.3,0.2-2c1.7-20.6,1.1-41.2-2.4-61.6c-0.9-4.9-2.3-9.7-3.8-14.4
	c-1.8-5.4-4.5-10.3-9-14.1L1143.7,2311.3z M1143.4,2311.3c0,0-0.4,0.2-0.4,0.2l0.7-0.2C1143.7,2311.3,1143.4,2311.3,1143.4,2311.3z
	 M861.1,2313.7c-0.8,0.5-1.8,0.8-2.5,1.4c-2.4,2.4-3.7,5.5-4.9,8.6c-2,5.3-3.5,10.7-4.5,16.3c-2.5,13.8-3.5,27.7-3.5,41.6
	c0,7.3,0.9,14.6,1.4,21.9c0.1,1.3,0.4,2.6,0.9,3.9c0.7,1.9,1.7,3.6,3.6,4.6c1.5,0.8,2.9,1.6,4.4,2.3c7.9,3.6,16.2,5.9,24.8,7.1
	c7.9,1.1,15.8,2,23.8,0.4c1.5-0.3,2.8-1.2,2.3-1.5c-0.8-0.4-1.7-0.7-2.6-0.8c-1-0.1-2,0-3,0c-12.1,0.1-23.7-2.5-35.1-6.3
	c-2.8-1-5.5-2.3-8.2-3.6c-2.9-1.4-4.7-3.5-5.3-6.7c-1-4.9-1.6-9.8-1.7-14.8c-0.3-13.6-0.1-27.2,1.7-40.8c1.4-10.2,3.2-20.3,7.4-29.8
	c0.6-1.3,0.9-2.5,0.6-3.8C860.9,2313.6,861.1,2313.8,861.1,2313.7z M864.1,2312.4c0.2-0.2,0.3-0.4,0.5-0.6c-0.7-0.5-0.9-0.4-0.7,0.4
	L864.1,2312.4z M864.1,2312.4c-1.4-0.4-2.6-0.4-3,1.3c0,0-0.2-0.2-0.2-0.2c1-0.4,2-0.9,2.9-1.3
	C863.9,2312.3,864.1,2312.4,864.1,2312.4z M792.4,2307c-1.6-0.9-3.1-0.9-4.4,0.7c-2.2,2.6-3.6,5.5-4.8,8.7c-1.8,5-3.1,10.1-4,15.4
	c-2.8,16.4-3.3,33-2.2,49.6c0.1,2.3,0.4,4.6,0.7,6.9c0.5,3.1,2.1,5.5,5,7c4.8,2.3,9.7,4.2,14.9,5.4c7.7,1.9,15.5,3.6,23.6,2.8
	c0.5,0,1.2-0.7,1.2-1c0-0.5-0.4-1.4-0.8-1.5c-2.2-0.5-4.5-0.9-6.8-1.2c-9.6-1.3-18.9-3.7-27.5-8.2c-2.2-1.1-3.6-2.8-4-5.3
	c-0.9-5.2-1.6-10.5-1.7-15.8c-0.4-12.3,0.5-24.6,2.1-36.7c1-7.9,2.6-15.7,5.8-23.1C790.1,2309.1,790.8,2307.6,792.4,2307L792.4,2307
	z M792.5,2306.9c-0.1-0.2-0.2-0.5-0.3-0.7C792.2,2306.5,792.3,2306.7,792.5,2306.9C792.4,2307,792.5,2306.9,792.5,2306.9z
	 M1215.2,2305.4c-0.5,1.3-0.2,2.6,0.4,3.8c2.3,4.8,3.9,9.9,4.9,15.2c2.9,15.4,4.2,31,3.6,46.6c-0.2,5-0.9,9.9-1.5,14.9
	c-0.3,2.5-1.7,4.3-3.9,5.5c-1.2,0.6-2.3,1.3-3.5,1.8c-7.7,3.2-15.7,5.5-24,6.5c-2,0.2-4,0.4-5.9,0.6c-0.6,0.1-1.2,0.5-1.8,0.8
	c-0.2,0.1-0.4,0.5-0.5,0.8c-0.4,0.8-0.2,1.4,0.7,1.4c12.9,1.1,24.9-2.3,36.8-6.9c5-1.9,7.4-5.3,7.9-10.4c0.2-2,0.4-4,0.5-6
	c0.5-10.6,0.5-21.3-0.3-31.9c-0.6-8.3-1.8-16.5-3.8-24.6c-1.2-4.8-2.7-9.6-5.5-13.8c-1.1-1.7-2.2-3.3-4.2-4L1215.2,2305.4z
	 M1215,2305.6c-0.2-0.2-0.3-0.5-0.5-0.7c-0.1-0.1-0.3,0.1-0.5,0.1c0.4,0.1,0.8,0.2,1.3,0.3C1215.2,2305.4,1215,2305.6,1215,2305.6z
	 M663.4,2287.9c-1.3,3-2.6,6.2-3.3,9.4c-3.8,18.1-4.3,36.3-2.5,54.6c0.2,2.2,1.4,3.9,3.2,4.7c3,1.4,6,2.8,9.2,3.7
	c4.5,1.3,9.1,2.1,13.6,2.9c1.2,0.2,2.6-0.2,3.9-0.3c0.8-0.1,1.1-0.7,0.7-1.5c-0.1-0.3-0.2-0.7-0.4-0.8c-2.2-0.6-4.4-1.3-6.7-1.8
	c-3.2-0.8-5.2-2.4-5.9-5.8c-1.9-9.1-3.5-18.3-4.2-27.6c-1-14-0.8-27.9,0.4-41.9c-1.2-0.2-1.9-0.9-2-2.1
	C666.6,2282.8,664.6,2285.1,663.4,2287.9z M1334.8,2322.4c-0.4,8-1.3,15.9-3,23.7c-2.6,11.9-0.3,11.4-13,14
	c-0.3,0.1-0.7,0.3-0.8,0.6c-0.3,0.5-0.4,1.1-0.5,1.7c0,0.2,0.4,0.5,0.6,0.6c0.6,0.2,1.3,0.5,1.9,0.4c8.4-0.4,16.3-2.6,23.9-6.2
	c2.6-1.2,4.1-3.4,4.4-6.2c0.3-2.6,0.5-5.3,0.6-7.9c0-7.3-0.1-14.6-0.1-21.9c0-7-1.2-13.9-2.5-20.7c-0.7-3.9-2.1-7.7-3.5-11.4
	c-1.2-3.1-3.1-5.9-6.2-7.5c-0.2,1.1-1,1.8-2.1,2.1C1334.9,2296.6,1335.4,2309.5,1334.8,2322.4z M1372.3,2329.5c0,3.3,0,6.6,0,10
	c0,1.3,0.1,2.6,0.2,3.9c0.1,0.8,1.3,1.8,2.2,1.6c17.2-4.1,16.7-3.8,17.5-19.7c0.5-10-0.7-19.9-2-29.8c-0.5-4.2-1.4-8.5-3.3-12.5
	c-0.6-1.2-1.3-2.3-2-3.4c-0.7-1.2-2.5-1.1-3.2,0.2c-3.3,5.7-6.6,11.5-9.9,17.2c-0.9,1.5-1.3,3-1.2,4.7c0.2,2.6,0.5,5.3,0.7,7.9
	c0.5,6.6,1,13.2,1.6,19.8C1372.7,2329.4,1372.5,2329.4,1372.3,2329.5z M619.3,2281.7c-1.9,3.9-2.9,8.1-3.6,12.4
	c-1.9,11.5-2.6,23.1-2,34.8c0.5,11.2,1.3,11.6,12.2,14.9c2.2,0.7,4.4,1.7,7.1,0.7c0.1-1.8,0.4-3.8,0.4-5.7
	c-0.3-11.6-0.4-23.3,1.6-34.8c0.1-0.7,0.1-1.3,0.2-2c0.1-1.7-0.2-3.3-1.1-4.8c-2.7-4.6-5.3-9.2-8-13.8c-0.7-1.2-0.9-2.5-0.6-3.8
	c-1.4,0-1.9-0.9-2-2C621.4,2278.3,620.2,2279.8,619.3,2281.7z"/>
</svg>
